<svg width="291" height="129" viewBox="0 0 291 129" fill="none" xmlns="http://www.w3.org/2000/svg">
<path d="M125.56 9.90703L126.342 15.0348L133.097 59.3389L198.068 49.4319L189.909 0.0946423L125.56 9.90703Z" fill="#063A43"/>
<path d="M121.884 14.6881L122.587 19.297L129.647 65.5957L196.07 55.0384L187.527 4.67845L121.884 14.6881Z" fill="#115C66"/>
<path d="M116.932 19.7691L117.803 25.479L126.087 72.5295L194.406 62.1119L184.6 9.45069L116.932 19.7691Z" fill="#1B8B91"/>
<path d="M125.025 74.8646L115 23.5577L182.125 13.322L191.505 64.7273L125.025 74.8646Z" fill="#29C9E2"/>
<path d="M74.2274 102.341C72.6507 102.341 71.2906 101.993 70.1471 101.297C69.0107 100.594 68.1336 99.6136 67.5157 98.3565C66.9049 97.0923 66.5995 95.6222 66.5995 93.946C66.5995 92.2699 66.9049 90.7926 67.5157 89.5142C68.1336 88.2287 68.993 87.2273 70.0938 86.5099C71.2018 85.7855 72.4944 85.4233 73.9717 85.4233C74.824 85.4233 75.6656 85.5653 76.4965 85.8494C77.3275 86.1335 78.0839 86.5952 78.7657 87.2344C79.4475 87.8665 79.9909 88.7045 80.3957 89.7486C80.8005 90.7926 81.0029 92.0781 81.0029 93.6051V94.6705H68.3893V92.4972H78.4461C78.4461 91.5739 78.2615 90.75 77.8921 90.0256C77.5299 89.3011 77.0115 88.7294 76.3367 88.3104C75.6691 87.8913 74.8808 87.6818 73.9717 87.6818C72.9703 87.6818 72.1038 87.9304 71.3722 88.4276C70.6478 88.9176 70.0903 89.5568 69.6997 90.3452C69.309 91.1335 69.1137 91.9787 69.1137 92.8807V94.3295C69.1137 95.5653 69.3268 96.6129 69.7529 97.4723C70.1862 98.3246 70.7863 98.9744 71.5534 99.4219C72.3204 99.8622 73.2117 100.082 74.2274 100.082C74.8879 100.082 75.4845 99.9901 76.0171 99.8054C76.5569 99.6136 77.0221 99.3295 77.4127 98.9531C77.8034 98.5696 78.1052 98.0937 78.3183 97.5256L80.7472 98.2074C80.4916 99.0312 80.0619 99.7557 79.4582 100.381C78.8545 100.999 78.1088 101.482 77.221 101.83C76.3332 102.17 75.3353 102.341 74.2274 102.341ZM102.725 87H100.083C99.9269 86.2401 99.6535 85.5724 99.2629 84.9972C98.8794 84.4219 98.4106 83.9389 97.8566 83.5483C97.3097 83.1506 96.7025 82.8523 96.0349 82.6534C95.3673 82.4545 94.6713 82.3551 93.9468 82.3551C92.6258 82.3551 91.4291 82.6889 90.3566 83.3565C89.2913 84.0241 88.4426 85.0078 87.8105 86.3075C87.1855 87.6072 86.873 89.2017 86.873 91.0909C86.873 92.9801 87.1855 94.5746 87.8105 95.8743C88.4426 97.174 89.2913 98.1577 90.3566 98.8253C91.4291 99.4929 92.6258 99.8267 93.9468 99.8267C94.6713 99.8267 95.3673 99.7273 96.0349 99.5284C96.7025 99.3295 97.3097 99.0348 97.8566 98.6442C98.4106 98.2464 98.8794 97.7599 99.2629 97.1847C99.6535 96.6023 99.9269 95.9347 100.083 95.1818H102.725C102.526 96.2969 102.164 97.2947 101.639 98.1754C101.113 99.0561 100.46 99.8054 99.6784 100.423C98.8971 101.034 98.02 101.499 97.047 101.819C96.0811 102.138 95.0477 102.298 93.9468 102.298C92.086 102.298 90.4312 101.844 88.9823 100.935C87.5335 100.026 86.3936 98.733 85.5626 97.0568C84.7316 95.3807 84.3161 93.392 84.3161 91.0909C84.3161 88.7898 84.7316 86.8011 85.5626 85.125C86.3936 83.4489 87.5335 82.1562 88.9823 81.2472C90.4312 80.3381 92.086 79.8835 93.9468 79.8835C95.0477 79.8835 96.0811 80.0433 97.047 80.3629C98.02 80.6825 98.8971 81.1513 99.6784 81.7692C100.46 82.38 101.113 83.1257 101.639 84.0064C102.164 84.88 102.526 85.8778 102.725 87ZM111.469 102.384C110.432 102.384 109.491 102.188 108.646 101.798C107.801 101.4 107.13 100.828 106.632 100.082C106.135 99.3295 105.887 98.4205 105.887 97.3551C105.887 96.4176 106.071 95.6577 106.441 95.0753C106.81 94.4858 107.304 94.0241 107.921 93.6903C108.539 93.3565 109.221 93.108 109.967 92.9446C110.72 92.7741 111.476 92.6392 112.236 92.5398C113.23 92.4119 114.036 92.3161 114.654 92.2521C115.279 92.1811 115.734 92.0639 116.018 91.9006C116.309 91.7372 116.455 91.4531 116.455 91.0483V90.9631C116.455 89.9119 116.167 89.0952 115.592 88.5128C115.024 87.9304 114.161 87.6392 113.003 87.6392C111.803 87.6392 110.862 87.902 110.18 88.4276C109.498 88.9531 109.019 89.5142 108.742 90.1108L106.355 89.2585C106.782 88.2642 107.35 87.4901 108.06 86.9361C108.777 86.375 109.559 85.9844 110.404 85.7642C111.256 85.5369 112.094 85.4233 112.918 85.4233C113.443 85.4233 114.047 85.4872 114.729 85.6151C115.418 85.7358 116.082 85.9879 116.721 86.3714C117.367 86.755 117.904 87.3338 118.33 88.108C118.756 88.8821 118.969 89.919 118.969 91.2188V102H116.455V99.7841H116.327C116.157 100.139 115.872 100.519 115.475 100.924C115.077 101.329 114.548 101.673 113.887 101.957C113.227 102.241 112.421 102.384 111.469 102.384ZM111.853 100.125C112.847 100.125 113.685 99.9297 114.367 99.5391C115.056 99.1484 115.574 98.6442 115.922 98.0263C116.277 97.4084 116.455 96.7585 116.455 96.0767V93.7756C116.348 93.9034 116.114 94.0206 115.752 94.1271C115.397 94.2266 114.985 94.3153 114.516 94.3935C114.054 94.4645 113.603 94.5284 113.163 94.5852C112.73 94.6349 112.378 94.6776 112.108 94.7131C111.455 94.7983 110.844 94.9368 110.276 95.1286C109.715 95.3132 109.26 95.5937 108.912 95.9702C108.571 96.3395 108.401 96.8437 108.401 97.483C108.401 98.3565 108.724 99.017 109.37 99.4645C110.024 99.9048 110.851 100.125 111.853 100.125ZM130.674 85.6364V87.767H122.194V85.6364H130.674ZM124.666 81.7159H127.18V97.3125C127.18 98.0227 127.283 98.5554 127.489 98.9105C127.702 99.2585 127.972 99.4929 128.299 99.6136C128.633 99.7273 128.984 99.7841 129.353 99.7841C129.63 99.7841 129.858 99.7699 130.035 99.7415C130.213 99.706 130.355 99.6776 130.461 99.6562L130.973 101.915C130.802 101.979 130.564 102.043 130.259 102.107C129.954 102.178 129.566 102.213 129.098 102.213C128.388 102.213 127.691 102.06 127.01 101.755C126.335 101.45 125.774 100.984 125.326 100.359C124.886 99.7344 124.666 98.946 124.666 97.9943V81.7159ZM139.272 102.384C138.235 102.384 137.294 102.188 136.449 101.798C135.603 101.4 134.932 100.828 134.435 100.082C133.938 99.3295 133.689 98.4205 133.689 97.3551C133.689 96.4176 133.874 95.6577 134.243 95.0753C134.613 94.4858 135.106 94.0241 135.724 93.6903C136.342 93.3565 137.024 93.108 137.77 92.9446C138.522 92.7741 139.279 92.6392 140.039 92.5398C141.033 92.4119 141.839 92.3161 142.457 92.2521C143.082 92.1811 143.537 92.0639 143.821 91.9006C144.112 91.7372 144.258 91.4531 144.258 91.0483V90.9631C144.258 89.9119 143.97 89.0952 143.395 88.5128C142.826 87.9304 141.964 87.6392 140.806 87.6392C139.606 87.6392 138.665 87.902 137.983 88.4276C137.301 88.9531 136.821 89.5142 136.544 90.1108L134.158 89.2585C134.584 88.2642 135.152 87.4901 135.863 86.9361C136.58 86.375 137.361 85.9844 138.206 85.7642C139.059 85.5369 139.897 85.4233 140.721 85.4233C141.246 85.4233 141.85 85.4872 142.532 85.6151C143.221 85.7358 143.885 85.9879 144.524 86.3714C145.17 86.755 145.706 87.3338 146.133 88.108C146.559 88.8821 146.772 89.919 146.772 91.2188V102H144.258V99.7841H144.13C143.959 100.139 143.675 100.519 143.277 100.924C142.88 101.329 142.351 101.673 141.69 101.957C141.03 102.241 140.223 102.384 139.272 102.384ZM139.655 100.125C140.65 100.125 141.488 99.9297 142.169 99.5391C142.858 99.1484 143.377 98.6442 143.725 98.0263C144.08 97.4084 144.258 96.7585 144.258 96.0767V93.7756C144.151 93.9034 143.917 94.0206 143.554 94.1271C143.199 94.2266 142.787 94.3153 142.319 94.3935C141.857 94.4645 141.406 94.5284 140.966 94.5852C140.532 94.6349 140.181 94.6776 139.911 94.7131C139.258 94.7983 138.647 94.9368 138.079 95.1286C137.517 95.3132 137.063 95.5937 136.715 95.9702C136.374 96.3395 136.204 96.8437 136.204 97.483C136.204 98.3565 136.527 99.017 137.173 99.4645C137.826 99.9048 138.654 100.125 139.655 100.125ZM139.741 83.4205L142.34 78.4773H145.28L141.956 83.4205H139.741ZM153.875 80.1818V102H151.361V80.1818H153.875ZM165.128 102.341C163.65 102.341 162.354 101.989 161.239 101.286C160.131 100.583 159.265 99.5994 158.64 98.3352C158.022 97.071 157.713 95.5937 157.713 93.9034C157.713 92.1989 158.022 90.7109 158.64 89.4396C159.265 88.1683 160.131 87.1811 161.239 86.478C162.354 85.7749 163.65 85.4233 165.128 85.4233C166.605 85.4233 167.897 85.7749 169.005 86.478C170.12 87.1811 170.987 88.1683 171.605 89.4396C172.23 90.7109 172.542 92.1989 172.542 93.9034C172.542 95.5937 172.23 97.071 171.605 98.3352C170.987 99.5994 170.12 100.583 169.005 101.286C167.897 101.989 166.605 102.341 165.128 102.341ZM165.128 100.082C166.25 100.082 167.173 99.7947 167.897 99.2195C168.622 98.6442 169.158 97.8878 169.506 96.9503C169.854 96.0128 170.028 94.9972 170.028 93.9034C170.028 92.8097 169.854 91.7905 169.506 90.8459C169.158 89.9013 168.622 89.1378 167.897 88.5554C167.173 87.973 166.25 87.6818 165.128 87.6818C164.005 87.6818 163.082 87.973 162.358 88.5554C161.633 89.1378 161.097 89.9013 160.749 90.8459C160.401 91.7905 160.227 92.8097 160.227 93.9034C160.227 94.9972 160.401 96.0128 160.749 96.9503C161.097 97.8878 161.633 98.6442 162.358 99.2195C163.082 99.7947 164.005 100.082 165.128 100.082ZM182.985 108.477C181.771 108.477 180.727 108.321 179.853 108.009C178.98 107.703 178.252 107.298 177.669 106.794C177.094 106.297 176.636 105.764 176.295 105.196L178.298 103.79C178.525 104.088 178.813 104.429 179.161 104.812C179.509 105.203 179.985 105.54 180.588 105.825C181.199 106.116 181.998 106.261 182.985 106.261C184.306 106.261 185.397 105.942 186.256 105.303C187.115 104.663 187.545 103.662 187.545 102.298V98.9744H187.332C187.147 99.2727 186.884 99.642 186.544 100.082C186.21 100.516 185.727 100.903 185.095 101.244C184.47 101.577 183.625 101.744 182.559 101.744C181.238 101.744 180.052 101.432 179.001 100.807C177.957 100.182 177.13 99.2727 176.519 98.0795C175.915 96.8864 175.613 95.4375 175.613 93.733C175.613 92.0568 175.908 90.5973 176.497 89.3544C177.087 88.1044 177.907 87.1385 178.958 86.4567C180.009 85.7678 181.224 85.4233 182.602 85.4233C183.667 85.4233 184.512 85.6009 185.137 85.956C185.769 86.304 186.252 86.7017 186.586 87.1491C186.927 87.5895 187.19 87.9517 187.375 88.2358H187.63V85.6364H190.059V102.469C190.059 103.875 189.74 105.018 189.1 105.899C188.468 106.787 187.616 107.437 186.544 107.849C185.478 108.268 184.292 108.477 182.985 108.477ZM182.9 99.4858C183.909 99.4858 184.761 99.255 185.457 98.7933C186.153 98.3317 186.682 97.6676 187.044 96.8011C187.407 95.9347 187.588 94.8977 187.588 93.6903C187.588 92.5114 187.41 91.4709 187.055 90.5689C186.7 89.6669 186.174 88.9602 185.478 88.4489C184.782 87.9375 183.923 87.6818 182.9 87.6818C181.835 87.6818 180.947 87.9517 180.237 88.4915C179.534 89.0312 179.005 89.7557 178.649 90.6648C178.301 91.5739 178.127 92.5824 178.127 93.6903C178.127 94.8267 178.305 95.8317 178.66 96.7053C179.022 97.5717 179.555 98.2536 180.258 98.7507C180.968 99.2408 181.849 99.4858 182.9 99.4858ZM201.309 102.341C199.832 102.341 198.536 101.989 197.421 101.286C196.313 100.583 195.446 99.5994 194.821 98.3352C194.203 97.071 193.894 95.5937 193.894 93.9034C193.894 92.1989 194.203 90.7109 194.821 89.4396C195.446 88.1683 196.313 87.1811 197.421 86.478C198.536 85.7749 199.832 85.4233 201.309 85.4233C202.786 85.4233 204.079 85.7749 205.187 86.478C206.302 87.1811 207.169 88.1683 207.786 89.4396C208.411 90.7109 208.724 92.1989 208.724 93.9034C208.724 95.5937 208.411 97.071 207.786 98.3352C207.169 99.5994 206.302 100.583 205.187 101.286C204.079 101.989 202.786 102.341 201.309 102.341ZM201.309 100.082C202.431 100.082 203.355 99.7947 204.079 99.2195C204.804 98.6442 205.34 97.8878 205.688 96.9503C206.036 96.0128 206.21 94.9972 206.21 93.9034C206.21 92.8097 206.036 91.7905 205.688 90.8459C205.34 89.9013 204.804 89.1378 204.079 88.5554C203.355 87.973 202.431 87.6818 201.309 87.6818C200.187 87.6818 199.264 87.973 198.539 88.5554C197.815 89.1378 197.279 89.9013 196.931 90.8459C196.583 91.7905 196.409 92.8097 196.409 93.9034C196.409 94.9972 196.583 96.0128 196.931 96.9503C197.279 97.8878 197.815 98.6442 198.539 99.2195C199.264 99.7947 200.187 100.082 201.309 100.082ZM224.153 89.3011L221.894 89.9403C221.752 89.5639 221.543 89.1982 221.266 88.843C220.996 88.4808 220.627 88.1825 220.158 87.9482C219.689 87.7138 219.089 87.5966 218.357 87.5966C217.356 87.5966 216.521 87.8274 215.854 88.2891C215.193 88.7436 214.863 89.3224 214.863 90.0256C214.863 90.6506 215.09 91.1442 215.545 91.5064C215.999 91.8686 216.71 92.1705 217.676 92.4119L220.104 93.0085C221.568 93.3636 222.658 93.907 223.375 94.6385C224.092 95.3629 224.451 96.2969 224.451 97.4403C224.451 98.3778 224.181 99.2159 223.641 99.9545C223.109 100.693 222.363 101.276 221.404 101.702C220.445 102.128 219.33 102.341 218.059 102.341C216.39 102.341 215.009 101.979 213.915 101.254C212.821 100.53 212.129 99.4716 211.837 98.0795L214.224 97.483C214.451 98.3636 214.881 99.0241 215.513 99.4645C216.152 99.9048 216.987 100.125 218.016 100.125C219.188 100.125 220.119 99.8764 220.808 99.3793C221.504 98.875 221.852 98.2713 221.852 97.5682C221.852 97 221.653 96.5241 221.255 96.1406C220.857 95.75 220.247 95.4588 219.423 95.267L216.695 94.6278C215.197 94.2727 214.096 93.7223 213.393 92.9766C212.697 92.2237 212.349 91.2827 212.349 90.1534C212.349 89.2301 212.608 88.4134 213.127 87.7031C213.652 86.9929 214.366 86.4354 215.268 86.0305C216.177 85.6257 217.207 85.4233 218.357 85.4233C219.977 85.4233 221.248 85.7784 222.171 86.4886C223.102 87.1989 223.762 88.1364 224.153 89.3011Z" fill="#29C9E2"/>
<path d="M67.6039 124V108.727H76.1277V109.592H68.536V115.924H75.4192V116.789H68.536V124H67.6039ZM83.0052 124.239C82.0606 124.239 81.2204 123.985 80.4846 123.478C79.7488 122.966 79.1697 122.262 78.7471 121.368C78.3245 120.473 78.1132 119.453 78.1132 118.31C78.1132 117.162 78.3245 116.142 78.7471 115.252C79.1697 114.358 79.7488 113.654 80.4846 113.142C81.2204 112.63 82.0606 112.374 83.0052 112.374C83.9498 112.374 84.79 112.63 85.5258 113.142C86.2616 113.654 86.8408 114.358 87.2634 115.252C87.686 116.147 87.8973 117.167 87.8973 118.31C87.8973 119.453 87.686 120.473 87.2634 121.368C86.8408 122.262 86.2616 122.966 85.5258 123.478C84.79 123.985 83.9498 124.239 83.0052 124.239ZM83.0052 123.396C83.8057 123.396 84.5042 123.17 85.1008 122.717C85.7023 122.265 86.1672 121.653 86.4953 120.883C86.8284 120.112 86.9949 119.255 86.9949 118.31C86.9949 117.365 86.8284 116.51 86.4953 115.745C86.1622 114.974 85.6974 114.363 85.1008 113.91C84.5042 113.453 83.8057 113.224 83.0052 113.224C82.2048 113.224 81.5063 113.453 80.9097 113.91C80.3131 114.363 79.8483 114.974 79.5152 115.745C79.1821 116.51 79.0155 117.365 79.0155 118.31C79.0155 119.255 79.1796 120.112 79.5077 120.883C79.8408 121.653 80.3057 122.265 80.9023 122.717C81.5038 123.17 82.2048 123.396 83.0052 123.396ZM91.0312 124V112.545H91.9187V114.335H92.0007C92.2493 113.749 92.6694 113.279 93.261 112.926C93.8526 112.568 94.5263 112.389 95.282 112.389C95.3615 112.389 95.4411 112.389 95.5206 112.389C95.6001 112.389 95.6747 112.391 95.7443 112.396V113.314C95.6847 113.309 95.6126 113.301 95.5281 113.291C95.4485 113.276 95.3491 113.269 95.2298 113.269C94.5934 113.269 94.0266 113.406 93.5295 113.679C93.0373 113.952 92.6495 114.33 92.3661 114.812C92.0827 115.29 91.9411 115.837 91.9411 116.453V124H91.0312ZM102.135 124.239C101.161 124.239 100.303 123.983 99.5625 123.471C98.8217 122.953 98.2425 122.248 97.8249 121.353C97.4123 120.458 97.206 119.444 97.206 118.31C97.206 117.176 97.4148 116.162 97.8324 115.267C98.25 114.373 98.8292 113.667 99.57 113.149C100.311 112.632 101.163 112.374 102.128 112.374C102.854 112.374 103.515 112.523 104.112 112.821C104.713 113.12 105.21 113.535 105.603 114.067C106.001 114.599 106.254 115.215 106.364 115.916H105.439C105.29 115.141 104.917 114.499 104.32 113.992C103.729 113.48 103 113.224 102.135 113.224C101.36 113.224 100.669 113.443 100.062 113.88C99.4556 114.313 98.9783 114.912 98.6303 115.678C98.2823 116.438 98.1083 117.311 98.1083 118.295C98.1083 119.265 98.2773 120.135 98.6154 120.905C98.9535 121.671 99.4258 122.277 100.032 122.725C100.639 123.172 101.34 123.396 102.135 123.396C102.697 123.396 103.209 123.284 103.672 123.06C104.139 122.837 104.529 122.518 104.842 122.106C105.156 121.693 105.362 121.211 105.461 120.659H106.386C106.277 121.365 106.028 121.986 105.64 122.523C105.252 123.06 104.758 123.48 104.156 123.784C103.555 124.087 102.881 124.239 102.135 124.239ZM101.621 123.94H102.426L102.314 124.537C102.782 124.611 103.157 124.793 103.44 125.081C103.724 125.375 103.865 125.772 103.865 126.274C103.865 126.841 103.662 127.276 103.254 127.58C102.851 127.883 102.26 128.042 101.479 128.057L101.449 127.348C101.976 127.338 102.369 127.249 102.627 127.08C102.886 126.916 103.018 126.655 103.023 126.297C103.018 125.899 102.881 125.606 102.613 125.417C102.344 125.228 101.934 125.131 101.382 125.126L101.621 123.94ZM112.523 124.246C111.862 124.246 111.256 124.114 110.704 123.851C110.157 123.587 109.717 123.202 109.384 122.695C109.056 122.188 108.892 121.571 108.892 120.846C108.892 120.368 108.976 119.948 109.145 119.585C109.314 119.222 109.575 118.909 109.928 118.646C110.281 118.382 110.734 118.166 111.286 117.997C111.837 117.823 112.496 117.689 113.262 117.594C113.843 117.524 114.363 117.457 114.82 117.393C115.278 117.323 115.636 117.216 115.894 117.072C116.158 116.928 116.289 116.709 116.289 116.416V115.939C116.289 115.103 116.026 114.44 115.499 113.947C114.972 113.455 114.246 113.209 113.321 113.209C112.501 113.209 111.81 113.391 111.248 113.754C110.691 114.111 110.301 114.574 110.077 115.141L109.22 114.82C109.439 114.273 109.754 113.818 110.167 113.455C110.585 113.092 111.062 112.821 111.599 112.642C112.141 112.463 112.707 112.374 113.299 112.374C113.811 112.374 114.298 112.446 114.761 112.59C115.228 112.734 115.643 112.953 116.006 113.246C116.374 113.54 116.665 113.915 116.879 114.373C117.092 114.825 117.199 115.367 117.199 115.998V124H116.289V121.934H116.222C116.023 122.362 115.75 122.752 115.402 123.105C115.059 123.453 114.644 123.732 114.157 123.94C113.674 124.144 113.13 124.246 112.523 124.246ZM112.613 123.403C113.329 123.403 113.963 123.229 114.515 122.881C115.071 122.528 115.506 122.046 115.82 121.435C116.133 120.823 116.289 120.13 116.289 119.354V117.669C116.175 117.768 116.009 117.858 115.79 117.937C115.576 118.012 115.332 118.079 115.059 118.138C114.79 118.193 114.507 118.243 114.209 118.288C113.915 118.327 113.63 118.365 113.351 118.399C112.516 118.499 111.835 118.653 111.308 118.862C110.786 119.066 110.403 119.334 110.159 119.667C109.921 120 109.801 120.403 109.801 120.875C109.801 121.656 110.07 122.272 110.607 122.725C111.144 123.177 111.813 123.403 112.613 123.403ZM130.85 124.239C129.93 124.239 129.127 123.985 128.441 123.478C127.755 122.971 127.223 122.272 126.845 121.382C126.472 120.488 126.286 119.461 126.286 118.303C126.286 117.154 126.475 116.135 126.853 115.245C127.236 114.35 127.77 113.649 128.456 113.142C129.142 112.63 129.943 112.374 130.857 112.374C131.514 112.374 132.083 112.501 132.565 112.754C133.052 113.003 133.46 113.333 133.788 113.746C134.121 114.159 134.375 114.611 134.549 115.103H134.638V108.727H135.541V124H134.661V121.502H134.549C134.365 121.994 134.109 122.449 133.781 122.866C133.453 123.279 133.045 123.612 132.558 123.866C132.07 124.114 131.501 124.239 130.85 124.239ZM130.932 123.396C131.708 123.396 132.371 123.175 132.923 122.732C133.48 122.285 133.905 121.678 134.198 120.913C134.497 120.142 134.646 119.27 134.646 118.295C134.646 117.321 134.497 116.453 134.198 115.692C133.905 114.927 133.48 114.325 132.923 113.888C132.371 113.445 131.708 113.224 130.932 113.224C130.146 113.224 129.473 113.448 128.911 113.895C128.354 114.338 127.927 114.942 127.628 115.707C127.335 116.473 127.188 117.336 127.188 118.295C127.188 119.255 127.335 120.12 127.628 120.89C127.927 121.661 128.354 122.272 128.911 122.725C129.473 123.172 130.146 123.396 130.932 123.396ZM144.102 124.239C143.068 124.239 142.168 123.983 141.402 123.471C140.637 122.958 140.045 122.257 139.627 121.368C139.21 120.478 139.001 119.463 139.001 118.325C139.001 117.181 139.21 116.162 139.627 115.267C140.05 114.373 140.629 113.667 141.365 113.149C142.101 112.632 142.941 112.374 143.885 112.374C144.527 112.374 145.133 112.503 145.705 112.762C146.282 113.015 146.789 113.383 147.226 113.865C147.669 114.348 148.014 114.929 148.263 115.61C148.517 116.292 148.643 117.057 148.643 117.907V118.474H139.575V117.646H147.733C147.733 116.816 147.564 116.068 147.226 115.402C146.888 114.735 146.428 114.206 145.847 113.813C145.265 113.42 144.611 113.224 143.885 113.224C143.125 113.224 142.446 113.438 141.85 113.865C141.258 114.288 140.788 114.86 140.44 115.581C140.097 116.301 139.918 117.107 139.903 117.997V118.37C139.903 119.324 140.07 120.182 140.403 120.942C140.741 121.698 141.223 122.297 141.85 122.74C142.476 123.177 143.227 123.396 144.102 123.396C144.728 123.396 145.263 123.292 145.705 123.083C146.153 122.869 146.518 122.61 146.801 122.307C147.085 122.004 147.298 121.711 147.443 121.427L148.27 121.763C148.096 122.146 147.825 122.528 147.458 122.911C147.095 123.289 146.632 123.605 146.07 123.858C145.514 124.112 144.857 124.239 144.102 124.239ZM166.056 112.545L161.917 124H160.888L156.749 112.545H157.726L161.366 122.829H161.44L165.079 112.545H166.056ZM172.956 124.239C171.922 124.239 171.022 123.983 170.257 123.471C169.491 122.958 168.899 122.257 168.482 121.368C168.064 120.478 167.855 119.463 167.855 118.325C167.855 117.181 168.064 116.162 168.482 115.267C168.904 114.373 169.484 113.667 170.219 113.149C170.955 112.632 171.795 112.374 172.74 112.374C173.381 112.374 173.988 112.503 174.56 112.762C175.136 113.015 175.643 113.383 176.081 113.865C176.523 114.348 176.869 114.929 177.117 115.61C177.371 116.292 177.498 117.057 177.498 117.907V118.474H168.43V117.646H176.588C176.588 116.816 176.419 116.068 176.081 115.402C175.743 114.735 175.283 114.206 174.701 113.813C174.12 113.42 173.466 113.224 172.74 113.224C171.979 113.224 171.301 113.438 170.704 113.865C170.112 114.288 169.643 114.86 169.295 115.581C168.952 116.301 168.773 117.107 168.758 117.997V118.37C168.758 119.324 168.924 120.182 169.257 120.942C169.595 121.698 170.078 122.297 170.704 122.74C171.331 123.177 172.081 123.396 172.956 123.396C173.583 123.396 174.117 123.292 174.56 123.083C175.007 122.869 175.372 122.61 175.656 122.307C175.939 122.004 176.153 121.711 176.297 121.427L177.125 121.763C176.951 122.146 176.68 122.528 176.312 122.911C175.949 123.289 175.487 123.605 174.925 123.858C174.368 124.112 173.712 124.239 172.956 124.239ZM181.54 116.572V124H180.63V112.545H181.517V114.358H181.607C181.875 113.766 182.305 113.291 182.897 112.933C183.489 112.575 184.192 112.396 185.007 112.396C185.778 112.396 186.454 112.56 187.036 112.888C187.622 113.217 188.08 113.684 188.408 114.29C188.741 114.892 188.908 115.61 188.908 116.446V124H187.998V116.483C187.998 115.509 187.707 114.725 187.125 114.134C186.549 113.537 185.785 113.239 184.836 113.239C184.199 113.239 183.633 113.378 183.136 113.657C182.638 113.935 182.248 114.325 181.965 114.827C181.681 115.325 181.54 115.906 181.54 116.572ZM196.619 124.239C195.699 124.239 194.896 123.985 194.21 123.478C193.524 122.971 192.992 122.272 192.614 121.382C192.241 120.488 192.055 119.461 192.055 118.303C192.055 117.154 192.244 116.135 192.621 115.245C193.004 114.35 193.539 113.649 194.225 113.142C194.911 112.63 195.711 112.374 196.626 112.374C197.282 112.374 197.851 112.501 198.334 112.754C198.821 113.003 199.229 113.333 199.557 113.746C199.89 114.159 200.143 114.611 200.317 115.103H200.407V108.727H201.309V124H200.429V121.502H200.317C200.133 121.994 199.877 122.449 199.549 122.866C199.221 123.279 198.813 123.612 198.326 123.866C197.839 124.114 197.27 124.239 196.619 124.239ZM196.701 123.396C197.476 123.396 198.14 123.175 198.692 122.732C199.248 122.285 199.674 121.678 199.967 120.913C200.265 120.142 200.414 119.27 200.414 118.295C200.414 117.321 200.265 116.453 199.967 115.692C199.674 114.927 199.248 114.325 198.692 113.888C198.14 113.445 197.476 113.224 196.701 113.224C195.915 113.224 195.241 113.448 194.68 113.895C194.123 114.338 193.695 114.942 193.397 115.707C193.104 116.473 192.957 117.336 192.957 118.295C192.957 119.255 193.104 120.12 193.397 120.89C193.695 121.661 194.123 122.272 194.68 122.725C195.241 123.172 195.915 123.396 196.701 123.396ZM208.438 124.246C207.777 124.246 207.171 124.114 206.619 123.851C206.072 123.587 205.632 123.202 205.299 122.695C204.971 122.188 204.807 121.571 204.807 120.846C204.807 120.368 204.891 119.948 205.06 119.585C205.229 119.222 205.49 118.909 205.843 118.646C206.196 118.382 206.649 118.166 207.201 117.997C207.752 117.823 208.411 117.689 209.177 117.594C209.758 117.524 210.278 117.457 210.735 117.393C211.193 117.323 211.551 117.216 211.809 117.072C212.073 116.928 212.204 116.709 212.204 116.416V115.939C212.204 115.103 211.941 114.44 211.414 113.947C210.887 113.455 210.161 113.209 209.236 113.209C208.416 113.209 207.725 113.391 207.163 113.754C206.606 114.111 206.216 114.574 205.992 115.141L205.135 114.82C205.354 114.273 205.669 113.818 206.082 113.455C206.5 113.092 206.977 112.821 207.514 112.642C208.056 112.463 208.622 112.374 209.214 112.374C209.726 112.374 210.213 112.446 210.676 112.59C211.143 112.734 211.558 112.953 211.921 113.246C212.289 113.54 212.58 113.915 212.794 114.373C213.007 114.825 213.114 115.367 213.114 115.998V124H212.204V121.934H212.137C211.938 122.362 211.665 122.752 211.317 123.105C210.974 123.453 210.559 123.732 210.072 123.94C209.589 124.144 209.045 124.246 208.438 124.246ZM208.528 123.403C209.244 123.403 209.878 123.229 210.43 122.881C210.986 122.528 211.421 122.046 211.735 121.435C212.048 120.823 212.204 120.13 212.204 119.354V117.669C212.09 117.768 211.924 117.858 211.705 117.937C211.491 118.012 211.247 118.079 210.974 118.138C210.706 118.193 210.422 118.243 210.124 118.288C209.831 118.327 209.545 118.365 209.266 118.399C208.431 118.499 207.75 118.653 207.223 118.862C206.701 119.066 206.318 119.334 206.074 119.667C205.836 120 205.717 120.403 205.717 120.875C205.717 121.656 205.985 122.272 206.522 122.725C207.059 123.177 207.728 123.403 208.528 123.403ZM224.207 115.014L223.364 115.238C223.23 114.82 223.039 114.46 222.79 114.156C222.542 113.853 222.228 113.619 221.851 113.455C221.478 113.286 221.03 113.202 220.508 113.202C219.668 113.202 218.979 113.411 218.443 113.828C217.911 114.246 217.645 114.79 217.645 115.461C217.645 116.008 217.826 116.461 218.189 116.819C218.552 117.172 219.106 117.44 219.852 117.624L221.612 118.064C222.517 118.288 223.198 118.651 223.655 119.153C224.113 119.65 224.341 120.269 224.341 121.01C224.341 121.641 224.17 122.2 223.827 122.687C223.484 123.175 223.009 123.555 222.402 123.828C221.801 124.102 221.1 124.239 220.299 124.239C219.231 124.239 218.353 123.99 217.667 123.493C216.981 122.991 216.541 122.272 216.347 121.338L217.22 121.114C217.384 121.86 217.724 122.429 218.241 122.822C218.763 123.21 219.447 123.403 220.292 123.403C221.227 123.403 221.98 123.182 222.552 122.74C223.128 122.297 223.417 121.73 223.417 121.039C223.417 120.512 223.248 120.067 222.91 119.705C222.571 119.342 222.059 119.076 221.373 118.907L219.546 118.459C218.612 118.23 217.911 117.865 217.443 117.363C216.976 116.856 216.742 116.232 216.742 115.491C216.742 114.875 216.904 114.333 217.227 113.865C217.55 113.398 217.995 113.033 218.562 112.769C219.129 112.506 219.777 112.374 220.508 112.374C221.478 112.374 222.268 112.603 222.88 113.06C223.491 113.517 223.934 114.169 224.207 115.014Z" fill="black"/>
<path d="M151.97 45.8267C150.023 46.1236 148.255 45.8999 146.666 45.1555C145.077 44.4111 143.762 43.261 142.72 41.7052C141.678 40.1494 140.994 38.2996 140.667 36.1558C140.339 34.0027 140.439 32.0236 140.969 30.2186C141.507 28.4122 142.395 26.9166 143.632 25.7317C144.869 24.5469 146.377 23.8188 148.156 23.5476C149.364 23.3635 150.543 23.4327 151.694 23.7553C152.852 24.0672 153.913 24.6143 154.875 25.3968C155.847 26.1778 156.664 27.1739 157.328 28.385C158.001 29.5947 158.46 31 158.704 32.6008L158.866 33.668L141.791 36.2718L141.553 34.7131L156.916 32.3706C156.677 30.8072 156.144 29.4468 155.316 28.2895C154.488 27.1321 153.47 26.2671 152.262 25.6946C151.054 25.1221 149.767 24.94 148.4 25.1484C146.968 25.3668 145.751 25.9642 144.751 26.9406C143.758 27.9062 143.037 29.1177 142.589 30.575C142.15 32.0309 142.044 33.5989 142.272 35.2789L142.379 35.981C142.653 37.7784 143.213 39.3454 144.058 40.6821C144.912 42.008 145.992 42.9975 147.299 43.6509C148.604 44.2948 150.08 44.4912 151.728 44.2399C152.907 44.0601 153.884 43.71 154.657 43.1898C155.438 42.6588 156.052 42.067 156.499 41.4146C156.945 40.7622 157.263 40.1485 157.454 39.5735L159.109 39.9677C158.891 40.7385 158.491 41.5371 157.908 42.3636C157.333 43.1793 156.553 43.9065 155.568 44.5452C154.592 45.1826 153.393 45.6097 151.97 45.8267Z" fill="white"/>
<path d="M132.533 67.6567C132.08 67.7257 131.672 67.6801 131.309 67.5199C130.946 67.3576 130.645 67.1028 130.407 66.7555C130.17 66.4058 130.015 65.9855 129.94 65.4947C129.865 65.0061 129.889 64.5585 130.01 64.1521C130.133 63.7432 130.337 63.4071 130.622 63.1438C130.909 62.878 131.263 62.7131 131.682 62.6492C131.945 62.6091 132.206 62.6188 132.465 62.6785C132.724 62.736 132.966 62.849 133.19 63.0174C133.415 63.1834 133.608 63.4073 133.767 63.6891C133.926 63.9687 134.037 64.3118 134.099 64.7183L134.141 64.9964L130.35 65.5745L130.274 65.0785L133.49 64.588C133.443 64.2763 133.337 64.0058 133.173 63.7765C133.01 63.5448 132.806 63.3733 132.561 63.262C132.318 63.1504 132.051 63.1167 131.76 63.1611C131.452 63.208 131.194 63.3314 130.985 63.5313C130.777 63.7313 130.626 63.9762 130.535 64.266C130.445 64.5555 130.424 64.8605 130.471 65.181L130.516 65.478C130.575 65.8635 130.693 66.1904 130.869 66.4587C131.048 66.7246 131.272 66.9178 131.543 67.0382C131.813 67.1586 132.117 67.1931 132.454 67.1417C132.684 67.1067 132.879 67.0402 133.041 66.9422C133.205 66.844 133.337 66.7258 133.437 66.5877C133.538 66.4473 133.608 66.2997 133.647 66.1451L134.208 66.2374C134.165 66.453 134.073 66.6599 133.93 66.8584C133.79 67.0565 133.603 67.2273 133.368 67.3708C133.136 67.5119 132.857 67.6072 132.533 67.6567ZM140.231 61.8273L139.637 61.9178C139.559 61.7034 139.448 61.5113 139.304 61.3415C139.161 61.1693 138.993 61.0258 138.798 60.911C138.604 60.7962 138.392 60.7165 138.161 60.672C137.93 60.6275 137.687 60.6246 137.432 60.6635C137.023 60.7258 136.667 60.889 136.362 61.1532C136.06 61.417 135.839 61.7707 135.7 62.2144C135.562 62.6556 135.539 63.1743 135.63 63.7704C135.721 64.3707 135.898 64.861 136.161 65.2412C136.426 65.6211 136.742 65.8919 137.109 66.0536C137.478 66.2128 137.867 66.2613 138.276 66.199C138.531 66.1601 138.762 66.085 138.969 65.9737C139.176 65.8623 139.356 65.724 139.507 65.5586C139.658 65.3912 139.776 65.204 139.861 64.997C139.948 64.7898 139.997 64.5722 140.007 64.3443L140.601 64.2538C140.594 64.5588 140.537 64.8509 140.431 65.13C140.327 65.4067 140.177 65.6579 139.983 65.8836C139.791 66.109 139.559 66.2975 139.287 66.4489C139.015 66.6003 138.706 66.7024 138.361 66.755C137.817 66.8379 137.314 66.7756 136.852 66.5681C136.389 66.3585 135.999 66.0235 135.683 65.563C135.369 65.1022 135.161 64.5337 135.058 63.8576C134.955 63.1815 134.984 62.5767 135.146 62.0433C135.311 61.5096 135.583 61.0748 135.963 60.7388C136.342 60.4008 136.804 60.1903 137.347 60.1074C137.693 60.0548 138.018 60.0601 138.323 60.1236C138.627 60.1849 138.905 60.2956 139.156 60.4556C139.408 60.6132 139.626 60.8086 139.808 61.0416C139.992 61.2743 140.133 61.5362 140.231 61.8273ZM144.082 65.8955C143.663 65.9594 143.276 65.9096 142.921 65.746C142.569 65.5821 142.273 65.3265 142.035 64.9792C141.796 64.6298 141.639 64.2086 141.564 63.7157C141.489 63.2186 141.512 62.7678 141.636 62.3631C141.759 61.9563 141.965 61.6232 142.253 61.3638C142.543 61.1019 142.897 60.939 143.317 60.8751C143.736 60.8112 144.122 60.8612 144.474 61.0251C144.827 61.189 145.123 61.4457 145.361 61.7951C145.602 62.1442 145.76 62.5673 145.836 63.0644C145.911 63.5572 145.887 64.006 145.763 64.4107C145.639 64.8132 145.432 65.1454 145.143 65.4073C144.855 65.6689 144.501 65.8316 144.082 65.8955ZM144.004 65.3805C144.341 65.3291 144.612 65.195 144.818 64.9782C145.025 64.7615 145.165 64.4933 145.239 64.1738C145.315 63.8539 145.326 63.5129 145.27 63.1506C145.215 62.7883 145.103 62.4648 144.935 62.1801C144.769 61.8951 144.555 61.6788 144.293 61.5312C144.031 61.3836 143.732 61.3355 143.395 61.3869C143.06 61.438 142.788 61.5731 142.58 61.7924C142.375 62.0113 142.234 62.2817 142.158 62.6036C142.084 62.9252 142.075 63.2672 142.13 63.6295C142.185 63.9918 142.296 64.3144 142.462 64.5973C142.63 64.8798 142.845 65.0939 143.106 65.2394C143.367 65.3849 143.667 65.4319 144.004 65.3805ZM147.437 65.2805L146.697 60.4275L147.244 60.3441L147.357 61.0898L147.408 61.0821C147.467 60.8166 147.598 60.5951 147.801 60.4175C148.007 60.2375 148.268 60.1232 148.586 60.0747C148.921 60.0237 149.208 60.0608 149.447 60.186C149.688 60.3088 149.883 60.4989 150.032 60.7563L150.073 60.75C150.141 60.4637 150.287 60.2228 150.509 60.0272C150.733 59.8293 151.022 59.7033 151.376 59.6493C151.827 59.5806 152.205 59.6685 152.509 59.913C152.813 60.1555 153.007 60.5484 153.09 61.0918L153.586 64.3429L153.023 64.4287L152.527 61.1776C152.469 60.7942 152.327 60.5216 152.102 60.3598C151.877 60.198 151.604 60.1415 151.284 60.1904C150.913 60.2469 150.645 60.4041 150.48 60.6621C150.315 60.9201 150.258 61.224 150.312 61.5736L150.799 64.7679L150.224 64.8556L149.72 61.5539C149.67 61.2253 149.538 60.9739 149.324 60.7996C149.11 60.6253 148.837 60.5636 148.504 60.6143C148.281 60.6484 148.088 60.7338 147.925 60.8706C147.765 61.0071 147.648 61.1812 147.575 61.3928C147.503 61.602 147.487 61.833 147.525 62.0858L148 65.1947L147.437 65.2805ZM155.074 64.1159L154.334 59.2629L154.881 59.1796L154.995 59.9252L155.045 59.9175C155.104 59.6521 155.235 59.4306 155.439 59.253C155.644 59.0729 155.906 58.9587 156.224 58.9102C156.559 58.8591 156.846 58.8962 157.084 59.0214C157.325 59.1442 157.52 59.3343 157.669 59.5917L157.71 59.5855C157.779 59.2992 157.924 59.0582 158.147 58.8627C158.371 58.6647 158.66 58.5387 159.014 58.4848C159.464 58.416 159.842 58.5039 160.146 58.7485C160.451 58.9909 160.644 59.3838 160.727 59.9272L161.223 63.1784L160.66 63.2641L160.165 60.013C160.106 59.6296 159.964 59.3571 159.739 59.1953C159.514 59.0334 159.242 58.977 158.921 59.0258C158.551 59.0823 158.283 59.2396 158.117 59.4976C157.952 59.7556 157.896 60.0594 157.949 60.409L158.436 63.6033L157.861 63.691L157.358 60.3893C157.308 60.0607 157.175 59.8093 156.961 59.635C156.747 59.4608 156.474 59.399 156.141 59.4497C155.918 59.4838 155.725 59.5692 155.563 59.7061C155.402 59.8426 155.286 60.0166 155.212 60.2283C155.141 60.4375 155.124 60.6684 155.163 60.9212L155.637 64.0301L155.074 64.1159ZM164.689 62.7532C164.236 62.8223 163.829 62.7767 163.466 62.6165C163.103 62.4542 162.802 62.1994 162.564 61.8521C162.327 61.5024 162.171 61.0821 162.097 60.5913C162.022 60.1027 162.045 59.6551 162.167 59.2487C162.29 58.8398 162.494 58.5037 162.779 58.2403C163.066 57.9746 163.419 57.8097 163.838 57.7458C164.102 57.7057 164.363 57.7154 164.622 57.775C164.881 57.8326 165.122 57.9455 165.346 58.114C165.572 58.28 165.764 58.5039 165.924 58.7857C166.083 59.0653 166.193 59.4084 166.255 59.8149L166.298 60.0929L162.506 60.6711L162.431 60.175L165.647 59.6846C165.6 59.3729 165.494 59.1023 165.329 58.8731C165.167 58.6414 164.963 58.4699 164.717 58.3586C164.474 58.247 164.207 58.2133 163.916 58.2576C163.609 58.3045 163.351 58.428 163.142 58.6279C162.933 58.8278 162.783 59.0727 162.692 59.3626C162.602 59.6521 162.581 59.9571 162.627 60.2776L162.673 60.5746C162.731 60.9601 162.849 61.2869 163.026 61.5553C163.204 61.8212 163.429 62.0143 163.699 62.1347C163.97 62.2551 164.274 62.2896 164.611 62.2382C164.84 62.2032 165.036 62.1368 165.198 62.0388C165.362 61.9405 165.493 61.8224 165.593 61.6843C165.695 61.5438 165.765 61.3963 165.804 61.2416L166.364 61.334C166.322 61.5495 166.229 61.7565 166.087 61.9549C165.947 62.153 165.76 62.3238 165.525 62.4674C165.292 62.6085 165.014 62.7038 164.689 62.7532ZM167.882 62.163L167.142 57.31L167.688 57.2267L167.802 57.9723L167.843 57.9661C167.903 57.7069 168.041 57.4843 168.258 57.2981C168.477 57.1095 168.74 56.992 169.045 56.9454C169.091 56.9383 169.143 56.9315 169.2 56.9249C169.258 56.9184 169.305 56.9133 169.344 56.9096L169.431 57.4815C169.405 57.4811 169.36 57.4815 169.295 57.4827C169.231 57.4839 169.162 57.4902 169.088 57.5014C168.835 57.54 168.618 57.628 168.436 57.7656C168.256 57.9008 168.124 58.0708 168.039 58.2756C167.954 58.4804 167.929 58.7029 167.966 58.943L168.444 62.0773L167.882 62.163ZM172.816 61.514C172.382 61.5802 171.988 61.5293 171.632 61.3615C171.279 61.1934 170.985 60.9343 170.751 60.5842C170.516 60.2342 170.362 59.818 170.289 59.3356C170.215 58.8491 170.238 58.4026 170.359 57.9961C170.483 57.5894 170.688 57.2541 170.976 56.9905C171.263 56.7247 171.618 56.5595 172.041 56.495C172.366 56.4455 172.669 56.4639 172.952 56.5501C173.234 56.6343 173.478 56.7771 173.683 56.9785C173.89 57.1776 174.039 57.4243 174.129 57.7188L173.56 57.8055C173.459 57.5407 173.282 57.3285 173.027 57.1691C172.774 57.0073 172.474 56.9527 172.129 57.0054C171.819 57.0526 171.558 57.1786 171.346 57.3834C171.133 57.5861 170.982 57.8473 170.893 58.1669C170.806 58.4842 170.792 58.8387 170.852 59.2304C170.912 59.6243 171.03 59.963 171.207 60.2464C171.383 60.5277 171.603 60.7356 171.865 60.8703C172.129 61.0046 172.42 61.0475 172.738 60.999C172.953 60.9662 173.142 60.8963 173.307 60.7893C173.474 60.6799 173.606 60.5412 173.703 60.3734C173.802 60.2052 173.857 60.0147 173.868 59.8018L174.436 59.7151C174.439 60.0143 174.375 60.2914 174.243 60.5464C174.114 60.7989 173.927 61.0105 173.684 61.1813C173.442 61.3517 173.153 61.4626 172.816 61.514ZM177.835 60.7487C177.382 60.8177 176.974 60.7722 176.612 60.612C176.249 60.4496 175.948 60.1948 175.709 59.8475C175.473 59.4978 175.317 59.0775 175.242 58.5868C175.168 58.0981 175.191 57.6505 175.312 57.2441C175.435 56.8352 175.64 56.4991 175.925 56.2358C176.212 55.97 176.565 55.8052 176.984 55.7412C177.248 55.7011 177.509 55.7108 177.768 55.7705C178.027 55.828 178.268 55.941 178.492 56.1094C178.718 56.2754 178.91 56.4993 179.07 56.7811C179.229 57.0607 179.339 57.4038 179.401 57.8104L179.444 58.0884L175.652 58.6665L175.577 58.1705L178.793 57.68C178.745 57.3683 178.64 57.0978 178.475 56.8685C178.313 56.6368 178.109 56.4653 177.863 56.354C177.62 56.2424 177.353 56.2088 177.062 56.2531C176.755 56.3 176.497 56.4234 176.288 56.6233C176.079 56.8233 175.929 57.0682 175.837 57.358C175.748 57.6476 175.727 57.9526 175.773 58.273L175.819 58.57C175.877 58.9555 175.995 59.2824 176.172 59.5507C176.35 59.8166 176.575 60.0098 176.845 60.1302C177.116 60.2506 177.42 60.2851 177.757 60.2337C177.986 60.1987 178.182 60.1322 178.344 60.0342C178.508 59.936 178.639 59.8178 178.739 59.6798C178.84 59.5393 178.911 59.3917 178.95 59.2371L179.51 59.3294C179.467 59.545 179.375 59.752 179.233 59.9504C179.093 60.1485 178.906 60.3193 178.671 60.4628C178.438 60.6039 178.16 60.6992 177.835 60.7487Z" fill="white"/>
<path d="M138.534 53.5183L137.838 53.6245C137.766 53.4305 137.667 53.2655 137.541 53.1295C137.417 52.9933 137.274 52.8848 137.112 52.8041C136.952 52.7213 136.78 52.667 136.596 52.6414C136.412 52.6158 136.224 52.6176 136.033 52.6467C135.685 52.6998 135.383 52.8359 135.127 53.0551C134.873 53.2739 134.689 53.5673 134.575 53.9353C134.462 54.3031 134.444 54.736 134.52 55.234C134.596 55.7321 134.742 56.1398 134.959 56.4573C135.178 56.7745 135.441 56.9997 135.749 57.1329C136.059 57.2658 136.388 57.3057 136.736 57.2526C136.927 57.2235 137.106 57.1693 137.274 57.09C137.442 57.0108 137.591 56.9086 137.719 56.7837C137.849 56.6566 137.953 56.5095 138.031 56.3424C138.111 56.1732 138.156 55.9862 138.167 55.7814L138.863 55.6752C138.856 55.9772 138.8 56.2548 138.697 56.5081C138.594 56.7614 138.452 56.9852 138.271 57.1795C138.089 57.3719 137.877 57.5298 137.633 57.6531C137.391 57.7762 137.125 57.8599 136.835 57.9041C136.345 57.9789 135.89 57.9256 135.472 57.7442C135.053 57.5628 134.701 57.2679 134.414 56.8594C134.128 56.451 133.938 55.9434 133.846 55.3368C133.753 54.7302 133.783 54.1892 133.935 53.714C134.086 53.2387 134.335 52.8521 134.68 52.5542C135.026 52.2563 135.444 52.07 135.934 51.9952C136.224 51.9509 136.503 51.9515 136.771 51.9969C137.04 52.0421 137.29 52.1304 137.521 52.2619C137.751 52.3915 137.954 52.5618 138.128 52.7729C138.301 52.982 138.437 53.2305 138.534 53.5183ZM141.939 57.1374C141.55 57.1967 141.194 57.1562 140.872 57.0156C140.551 56.8748 140.283 56.6503 140.068 56.3422C139.854 56.0338 139.713 55.6567 139.645 55.2111C139.577 54.7618 139.598 54.3571 139.71 53.9971C139.824 53.6369 140.013 53.3418 140.276 53.1119C140.542 52.8817 140.87 52.7369 141.259 52.6776C141.648 52.6182 142.003 52.6589 142.324 52.7997C142.646 52.9402 142.914 53.1657 143.128 53.476C143.344 53.786 143.486 54.1657 143.555 54.615C143.623 55.0606 143.6 55.4626 143.486 55.821C143.374 56.1791 143.185 56.4733 142.919 56.7034C142.655 56.9333 142.329 57.078 141.939 57.1374ZM141.848 56.542C142.144 56.4969 142.376 56.3839 142.544 56.2031C142.712 56.0224 142.823 55.8014 142.877 55.5403C142.931 55.2791 142.936 55.0044 142.892 54.7161C142.848 54.4277 142.761 54.1661 142.631 53.931C142.502 53.696 142.33 53.5163 142.115 53.3919C141.901 53.2675 141.646 53.2278 141.35 53.2729C141.054 53.318 140.822 53.4319 140.655 53.6146C140.487 53.7972 140.377 54.0201 140.323 54.2831C140.269 54.5461 140.264 54.8217 140.308 55.1101C140.352 55.3984 140.439 55.6591 140.568 55.8923C140.698 56.1255 140.869 56.3033 141.083 56.4258C141.298 56.5484 141.553 56.5871 141.848 56.542ZM144.892 56.5952L144.234 52.2814L144.874 52.1837L144.977 52.8578L145.033 52.8492C145.088 52.6052 145.206 52.4043 145.387 52.2464C145.567 52.0867 145.798 51.9854 146.079 51.9426C146.364 51.8992 146.61 51.9277 146.819 52.028C147.03 52.1262 147.206 52.2823 147.347 52.4963L147.392 52.4895C147.469 52.2498 147.608 52.0476 147.809 51.8829C148.009 51.7163 148.264 51.6094 148.573 51.5623C148.959 51.5035 149.293 51.5761 149.575 51.7803C149.856 51.9825 150.036 52.3373 150.113 52.8447L150.554 55.7318L149.891 55.8329L149.451 52.9458C149.402 52.6275 149.28 52.4133 149.085 52.3032C148.89 52.193 148.675 52.156 148.439 52.1919C148.136 52.2382 147.915 52.3658 147.776 52.5747C147.637 52.7817 147.589 53.0247 147.632 53.3036L148.06 56.1121L147.386 56.2149L146.935 53.2604C146.898 53.0151 146.788 52.8297 146.606 52.7042C146.424 52.5768 146.207 52.5323 145.956 52.5705C145.784 52.5968 145.63 52.6672 145.494 52.7818C145.36 52.8961 145.26 53.0417 145.193 53.2185C145.128 53.3933 145.111 53.5864 145.144 53.798L145.555 56.4941L144.892 56.5952ZM154.564 55.1203L153.468 47.9306L154.988 47.6989L155.893 53.6352L158.975 53.1652L159.166 54.4185L154.564 55.1203ZM160.145 54.2693L159.323 48.877L160.818 48.649L161.641 54.0412L160.145 54.2693ZM159.968 48.0674C159.746 48.1013 159.544 48.0567 159.362 47.9335C159.182 47.8076 159.077 47.6405 159.045 47.4322C159.014 47.2263 159.065 47.0376 159.199 46.8663C159.336 46.6922 159.515 46.5883 159.737 46.5543C159.96 46.5204 160.161 46.5664 160.34 46.6923C160.522 46.8155 160.628 46.98 160.66 47.186C160.692 47.3943 160.639 47.5855 160.503 47.7595C160.369 47.9309 160.19 48.0335 159.968 48.0674ZM163.859 50.5131L164.334 53.6305L162.839 53.8585L162.016 48.4663L163.442 48.249L163.587 49.2004L163.65 49.1907C163.721 48.8589 163.884 48.5803 164.137 48.3549C164.389 48.1272 164.716 47.9829 165.116 47.9218C165.49 47.8647 165.829 47.8969 166.133 48.0182C166.436 48.1396 166.688 48.3406 166.889 48.6213C167.09 48.8997 167.222 49.2483 167.286 49.6672L167.809 53.1005L166.314 53.3286L165.831 50.1621C165.783 49.8317 165.66 49.5871 165.461 49.4283C165.261 49.2671 165.012 49.2094 164.712 49.255C164.511 49.2857 164.34 49.3561 164.198 49.4663C164.059 49.5761 163.959 49.7207 163.898 49.9C163.839 50.0767 163.826 50.2811 163.859 50.5131ZM170.107 51.1625L169.837 49.3681L170.054 49.3349L171.469 47.0249L173.186 46.7631L171.279 49.8271L170.924 49.8812L170.107 51.1625ZM168.988 52.9208L167.892 45.7312L169.387 45.5032L170.484 52.6928L168.988 52.9208ZM172.358 52.4069L170.413 50.3003L171.249 49.0916L174.11 52.1398L172.358 52.4069Z" fill="white"/>
</svg>
