<svg xmlns="http://www.w3.org/2000/svg" width="28" height="28" viewBox="0 0 28 28" fill="none">
  <path d="M4.66676 11.6665L3.84192 12.4913L3.01709 11.6665L3.84192 10.8416L4.66676 11.6665ZM24.5001 20.9998C24.5001 21.3092 24.3772 21.606 24.1584 21.8248C23.9396 22.0436 23.6428 22.1665 23.3334 22.1665C23.024 22.1665 22.7273 22.0436 22.5085 21.8248C22.2897 21.606 22.1668 21.3092 22.1668 20.9998H24.5001ZM9.67526 18.3246L3.84192 12.4913L5.49159 10.8416L11.3249 16.675L9.67526 18.3246ZM3.84192 10.8416L9.67526 5.0083L11.3249 6.65797L5.49159 12.4913L3.84192 10.8416ZM4.66676 10.4998H16.3334V12.8331H4.66676V10.4998ZM24.5001 18.6665V20.9998H22.1668V18.6665H24.5001ZM16.3334 10.4998C18.4994 10.4998 20.5766 11.3602 22.1081 12.8918C23.6397 14.4233 24.5001 16.5005 24.5001 18.6665H22.1668C22.1668 17.1194 21.5522 15.6356 20.4582 14.5417C19.3643 13.4477 17.8805 12.8331 16.3334 12.8331V10.4998Z" fill="#809CAA"/>
</svg>