<svg width="28" height="28" viewBox="0 0 28 28" fill="none" xmlns="http://www.w3.org/2000/svg">
<circle cx="14" cy="14" r="14" fill="white"/>
<path d="M21.2228 17.3381H10.7551L11.2807 16.2676L20.0135 16.2518C20.3088 16.2518 20.5619 16.0408 20.6146 15.749L21.824 8.97969C21.8557 8.80215 21.8082 8.61934 21.6922 8.48047C21.6348 8.41213 21.5633 8.35707 21.4826 8.31913C21.4018 8.28119 21.3138 8.26127 21.2246 8.26074L10.1152 8.22383L10.0203 7.77734C9.96054 7.49258 9.7039 7.28516 9.4121 7.28516H6.69628C6.53171 7.28516 6.37389 7.35053 6.25752 7.4669C6.14115 7.58327 6.07578 7.7411 6.07578 7.90566C6.07578 8.07023 6.14115 8.22806 6.25752 8.34443C6.37389 8.4608 6.53171 8.52617 6.69628 8.52617H8.90937L9.32421 10.4984L10.3455 15.4432L9.03066 17.5895C8.96238 17.6816 8.92125 17.791 8.91193 17.9054C8.90261 18.0197 8.92547 18.1343 8.97792 18.2363C9.08339 18.4455 9.29609 18.5773 9.53163 18.5773H10.6355C10.4002 18.8899 10.2731 19.2706 10.2734 19.6619C10.2734 20.6568 11.082 21.4654 12.0769 21.4654C13.0719 21.4654 13.8805 20.6568 13.8805 19.6619C13.8805 19.2699 13.7504 18.8885 13.5184 18.5773H16.3502C16.1149 18.8899 15.9877 19.2706 15.9881 19.6619C15.9881 20.6568 16.7967 21.4654 17.7916 21.4654C18.7865 21.4654 19.5951 20.6568 19.5951 19.6619C19.5951 19.2699 19.465 18.8885 19.233 18.5773H21.2246C21.5656 18.5773 21.8451 18.2996 21.8451 17.9568C21.8441 17.7924 21.7781 17.6351 21.6615 17.5192C21.5449 17.4033 21.3872 17.3382 21.2228 17.3381ZM10.3736 9.44727L20.4951 9.48066L19.5037 15.0318L11.5531 15.0459L10.3736 9.44727ZM12.0769 20.2174C11.7711 20.2174 11.5215 19.9678 11.5215 19.6619C11.5215 19.3561 11.7711 19.1064 12.0769 19.1064C12.3828 19.1064 12.6324 19.3561 12.6324 19.6619C12.6324 19.8092 12.5739 19.9505 12.4697 20.0547C12.3656 20.1589 12.2243 20.2174 12.0769 20.2174ZM17.7916 20.2174C17.4857 20.2174 17.2361 19.9678 17.2361 19.6619C17.2361 19.3561 17.4857 19.1064 17.7916 19.1064C18.0975 19.1064 18.3471 19.3561 18.3471 19.6619C18.3471 19.8092 18.2885 19.9505 18.1844 20.0547C18.0802 20.1589 17.9389 20.2174 17.7916 20.2174Z" fill="#809CAB"/>
</svg>
