<svg xmlns="http://www.w3.org/2000/svg" width="28" height="28" viewBox="0 0 28 28" fill="none">
  <path d="M19.221 6.30913L21.6908 8.77896M20.8088 4.1333L14.1273 10.8148C13.7821 11.1595 13.5467 11.5988 13.4507 12.0771L12.8335 15.1665L15.9228 14.5481C16.4012 14.4525 16.8398 14.218 17.1852 13.8726L23.8667 7.19113C24.0674 6.99035 24.2267 6.75199 24.3354 6.48966C24.444 6.22733 24.5 5.94616 24.5 5.66221C24.5 5.37827 24.444 5.0971 24.3354 4.83477C24.2267 4.57244 24.0674 4.33408 23.8667 4.1333C23.6659 3.93252 23.4275 3.77325 23.1652 3.66459C22.9029 3.55593 22.6217 3.5 22.3377 3.5C22.0538 3.5 21.7726 3.55593 21.5103 3.66459C21.248 3.77325 21.0096 3.93252 20.8088 4.1333Z" stroke="#809CAA" stroke-width="2" stroke-linecap="round" stroke-linejoin="round"/>
  <path d="M22.1667 17.4997V20.9997C22.1667 21.6185 21.9209 22.212 21.4833 22.6496C21.0457 23.0872 20.4523 23.333 19.8334 23.333H7.00008C6.38124 23.333 5.78775 23.0872 5.35017 22.6496C4.91258 22.212 4.66675 21.6185 4.66675 20.9997V8.16634C4.66675 7.5475 4.91258 6.95401 5.35017 6.51643C5.78775 6.07884 6.38124 5.83301 7.00008 5.83301H10.5001" stroke="#809CAA" stroke-width="2" stroke-linecap="round" stroke-linejoin="round"/>
</svg>