<svg xmlns="http://www.w3.org/2000/svg" width="30" height="30" viewBox="0 0 30 30" fill="none">
  <g clip-path="url(#clip0_667_224)">
    <path d="M15.2109 13.2253C15.1858 13.1933 15.1538 13.1674 15.1173 13.1496C15.0807 13.1318 15.0406 13.1226 14.9999 13.1226C14.9593 13.1226 14.9192 13.1318 14.8826 13.1496C14.8461 13.1674 14.8141 13.1933 14.789 13.2253L11.039 17.9698C11.0081 18.0092 10.9889 18.0566 10.9836 18.1065C10.9784 18.1563 10.9873 18.2067 11.0093 18.2517C11.0313 18.2968 11.0655 18.3347 11.1081 18.3613C11.1506 18.3878 11.1998 18.4018 11.2499 18.4017H13.7243V26.5177C13.7243 26.6651 13.8448 26.7856 13.9921 26.7856H16.0011C16.1484 26.7856 16.2689 26.6651 16.2689 26.5177V18.405H18.7499C18.9743 18.405 19.0982 18.1472 18.9609 17.9731L15.2109 13.2253Z" fill="#3D7C20"/>
    <path d="M25.0246 10.1351C23.4911 6.09047 19.5837 3.21436 15.0067 3.21436C10.4297 3.21436 6.52232 6.08712 4.98884 10.1318C2.11942 10.8851 0 13.5001 0 16.6072C0 20.307 2.99665 23.3036 6.69308 23.3036H8.03571C8.18304 23.3036 8.30357 23.1831 8.30357 23.0358V21.0269C8.30357 20.8795 8.18304 20.759 8.03571 20.759H6.69308C5.56473 20.759 4.50335 20.3103 3.71317 19.4967C2.92634 18.6865 2.50781 17.5949 2.54464 16.4632C2.57478 15.5793 2.87612 14.749 3.42187 14.0492C3.98103 13.336 4.76451 12.817 5.63504 12.586L6.90402 12.2545L7.36942 11.0291C7.65737 10.2657 8.05915 9.55253 8.56473 8.90632C9.06386 8.26583 9.65509 7.7028 10.3192 7.23556C11.6953 6.26793 13.3158 5.75565 15.0067 5.75565C16.6975 5.75565 18.3181 6.26793 19.6942 7.23556C20.3605 7.70431 20.9498 8.26681 21.4487 8.90632C21.9542 9.55253 22.356 10.269 22.644 11.0291L23.106 12.2512L24.3717 12.586C26.1864 13.0748 27.4554 14.7255 27.4554 16.6072C27.4554 17.7155 27.0234 18.7601 26.24 19.5436C25.8557 19.9301 25.3986 20.2365 24.8952 20.4451C24.3917 20.6537 23.8519 20.7604 23.3069 20.759H21.9643C21.817 20.759 21.6964 20.8795 21.6964 21.0269V23.0358C21.6964 23.1831 21.817 23.3036 21.9643 23.3036H23.3069C27.0033 23.3036 30 20.307 30 16.6072C30 13.5034 27.8873 10.8918 25.0246 10.1351Z" fill="#3D7C20"/>
  </g>
  <defs>
    <clipPath id="clip0_667_224">
      <rect width="30" height="30" fill="white"/>
    </clipPath>
  </defs>
</svg>