<svg xmlns="http://www.w3.org/2000/svg" width="28" height="28" viewBox="0 0 28 28" fill="none">
  <path d="M25.153 2.91213C25.0731 2.82432 24.9762 2.75363 24.8682 2.70432C24.7602 2.65501 24.6434 2.62812 24.5247 2.62526C24.406 2.62239 24.2879 2.64362 24.1777 2.68767C24.0674 2.73171 23.9672 2.79765 23.8832 2.8815L23.2067 3.5547C23.1247 3.63674 23.0787 3.74798 23.0787 3.86396C23.0787 3.97994 23.1247 4.09118 23.2067 4.17322L23.8269 4.79228C23.8675 4.83312 23.9158 4.86553 23.969 4.88765C24.0223 4.90976 24.0793 4.92114 24.1369 4.92114C24.1946 4.92114 24.2516 4.90976 24.3048 4.88765C24.358 4.86553 24.4064 4.83312 24.447 4.79228L25.1066 4.13603C25.4401 3.80298 25.4713 3.26048 25.153 2.91213ZM21.839 4.92189L11.9668 14.7766C11.9069 14.8362 11.8634 14.9102 11.8405 14.9915L11.3838 16.3516C11.3729 16.3885 11.3721 16.4277 11.3816 16.465C11.391 16.5023 11.4104 16.5363 11.4376 16.5635C11.4648 16.5908 11.4989 16.6101 11.5362 16.6196C11.5735 16.6291 11.6127 16.6283 11.6496 16.6174L13.0086 16.1607C13.0899 16.1378 13.1639 16.0942 13.2235 16.0344L23.0782 6.16111C23.1694 6.06896 23.2205 5.94457 23.2205 5.81494C23.2205 5.68531 23.1694 5.56091 23.0782 5.46877L22.534 4.92189C22.4418 4.82989 22.3168 4.77822 22.1865 4.77822C22.0562 4.77822 21.9312 4.82989 21.839 4.92189Z" fill="#809CAA"/>
  <path d="M21.128 10.5908L14.4621 17.2698C14.2045 17.528 13.8878 17.7197 13.5395 17.8281L12.1231 18.3023C11.787 18.3972 11.4316 18.4008 11.0936 18.3126C10.7556 18.2245 10.4472 18.0478 10.2002 17.8008C9.95326 17.5539 9.77659 17.2455 9.68846 16.9075C9.60032 16.5695 9.6039 16.2141 9.69883 15.878L10.173 14.4616C10.2811 14.1134 10.4724 13.7967 10.7302 13.539L17.4092 6.87203C17.4704 6.81088 17.5122 6.73294 17.5291 6.64808C17.546 6.56322 17.5374 6.47524 17.5043 6.39528C17.4712 6.31532 17.4152 6.24696 17.3433 6.19885C17.2713 6.15074 17.1868 6.12504 17.1002 6.125H5.6875C4.87527 6.125 4.09632 6.44766 3.52199 7.02199C2.94766 7.59632 2.625 8.37527 2.625 9.1875V22.3125C2.625 23.1247 2.94766 23.9037 3.52199 24.478C4.09632 25.0523 4.87527 25.375 5.6875 25.375H18.8125C19.6247 25.375 20.4037 25.0523 20.978 24.478C21.5523 23.9037 21.875 23.1247 21.875 22.3125V10.8998C21.875 10.8132 21.8493 10.7287 21.8011 10.6567C21.753 10.5848 21.6847 10.5288 21.6047 10.4957C21.5248 10.4626 21.4368 10.454 21.3519 10.4709C21.2671 10.4878 21.1891 10.5296 21.128 10.5908Z" fill="#809CAA"/>
</svg>