<svg width="28" height="28" viewBox="0 0 28 28" fill="none" xmlns="http://www.w3.org/2000/svg">
<g id="Group 432">
<g id="Group 407">
<circle id="Ellipse 1" cx="14" cy="14" r="14" fill="white"/>
</g>
<path id="Vector" d="M13.8333 13.0833C11.9417 12.5917 11.3333 12.0833 11.3333 11.2917C11.3333 10.3833 12.175 9.75 13.5833 9.75C15.0667 9.75 15.6167 10.4583 15.6667 11.5H17.5083C17.45 10.0667 16.575 8.75 14.8333 8.325V6.5H12.3333V8.3C10.7167 8.65 9.41666 9.7 9.41666 11.3083C9.41666 13.2333 11.0083 14.1917 13.3333 14.75C15.4167 15.25 15.8333 15.9833 15.8333 16.7583C15.8333 17.3333 15.425 18.25 13.5833 18.25C11.8667 18.25 11.1917 17.4833 11.1 16.5H9.26666C9.36666 18.325 10.7333 19.35 12.3333 19.6917V21.5H14.8333V19.7083C16.4583 19.4 17.75 18.4583 17.75 16.75C17.75 14.3833 15.725 13.575 13.8333 13.0833Z" fill="#809CAB"/>
</g>
</svg>
