<svg width="16" height="16" viewBox="0 0 16 16" fill="none" xmlns="http://www.w3.org/2000/svg">
<g id="mingcute:down-line" clip-path="url(#clip0_248_54)">
<g id="Group">
<path id="Vector" fill-rule="evenodd" clip-rule="evenodd" d="M7.52864 5.52876C7.65366 5.40378 7.8232 5.33357 7.99997 5.33357C8.17675 5.33357 8.34629 5.40378 8.47131 5.52876L12.2426 9.3001C12.3063 9.36159 12.3571 9.43516 12.392 9.51649C12.427 9.59783 12.4454 9.68531 12.4461 9.77383C12.4469 9.86235 12.43 9.95014 12.3965 10.0321C12.363 10.114 12.3135 10.1884 12.2509 10.251C12.1883 10.3136 12.1139 10.3631 12.0319 10.3966C11.95 10.4302 11.8622 10.447 11.7737 10.4463C11.6852 10.4455 11.5977 10.4271 11.5164 10.3922C11.435 10.3572 11.3615 10.3064 11.3 10.2428L7.99997 6.94276L4.69997 10.2428C4.57424 10.3642 4.40584 10.4314 4.23104 10.4299C4.05624 10.4284 3.88903 10.3582 3.76543 10.2346C3.64182 10.111 3.57171 9.94383 3.57019 9.76903C3.56867 9.59423 3.63587 9.42583 3.75731 9.3001L7.52864 5.52876Z" fill="black"/>
</g>
</g>
<defs>
<clipPath id="clip0_248_54">
<rect width="16" height="16" fill="white"/>
</clipPath>
</defs>
</svg>
