<svg width="30" height="30" viewBox="0 0 30 30" fill="none" xmlns="http://www.w3.org/2000/svg">
<rect width="30" height="30" rx="5" fill="white"/>
<path d="M22.125 8.25H11.625C10.7299 8.25 9.87145 8.60558 9.23851 9.23851C8.60558 9.87145 8.25 10.7299 8.25 11.625V22.125C8.25 23.0201 8.60558 23.8785 9.23851 24.5115C9.87145 25.1444 10.7299 25.5 11.625 25.5H22.125C23.0201 25.5 23.8785 25.1444 24.5115 24.5115C25.1444 23.8785 25.5 23.0201 25.5 22.125V11.625C25.5 10.7299 25.1444 9.87145 24.5115 9.23851C23.8785 8.60558 23.0201 8.25 22.125 8.25ZM20.6039 17.625H17.625V20.6039C17.625 21.0075 17.3147 21.3539 16.9111 21.3741C16.8097 21.3789 16.7083 21.3632 16.6132 21.3278C16.5181 21.2923 16.4311 21.2379 16.3576 21.1679C16.2841 21.0979 16.2256 21.0136 16.1856 20.9203C16.1456 20.827 16.125 20.7265 16.125 20.625V17.625H13.1461C12.7425 17.625 12.3961 17.3147 12.3759 16.9111C12.3711 16.8097 12.3868 16.7083 12.4222 16.6132C12.4577 16.5181 12.5121 16.4311 12.5821 16.3576C12.6521 16.2841 12.7364 16.2256 12.8297 16.1856C12.923 16.1456 13.0235 16.125 13.125 16.125H16.125V13.1461C16.125 12.7425 16.4353 12.3961 16.8389 12.3759C16.9403 12.3711 17.0417 12.3868 17.1368 12.4222C17.2319 12.4577 17.3189 12.5121 17.3924 12.5821C17.4659 12.6521 17.5244 12.7364 17.5644 12.8297C17.6044 12.923 17.625 13.0235 17.625 13.125V16.125H20.625C20.7266 16.1249 20.8272 16.1454 20.9206 16.1853C21.014 16.2253 21.0984 16.2838 21.1685 16.3573C21.2386 16.4308 21.2931 16.5178 21.3286 16.613C21.3641 16.7082 21.3799 16.8096 21.375 16.9111C21.3553 17.3147 21.0075 17.625 20.6039 17.625Z" fill="#809CAA"/>
<path d="M21.5569 6.75C21.3235 6.09246 20.8924 5.52322 20.3228 5.12038C19.7531 4.71755 19.0727 4.50084 18.375 4.5H7.875C6.97989 4.5 6.12145 4.85558 5.48851 5.48851C4.85558 6.12145 4.5 6.97989 4.5 7.875V18.375C4.50084 19.0727 4.71755 19.7531 5.12038 20.3228C5.52322 20.8924 6.09246 21.3235 6.75 21.5569V10.5C6.75 9.50544 7.14509 8.55161 7.84835 7.84835C8.55161 7.14509 9.50544 6.75 10.5 6.75H21.5569Z" fill="#809CAA"/>
</svg>
