<svg width="30" height="30" viewBox="0 0 30 30" fill="none" xmlns="http://www.w3.org/2000/svg">
<rect width="30" height="30" rx="5" fill="white"/>
<path d="M10 10H9C8.46957 10 7.96086 10.2107 7.58579 10.5858C7.21071 10.9609 7 11.4696 7 12V21C7 21.5304 7.21071 22.0391 7.58579 22.4142C7.96086 22.7893 8.46957 23 9 23H18C18.5304 23 19.0391 22.7893 19.4142 22.4142C19.7893 22.0391 20 21.5304 20 21V20" stroke="#809CAA" stroke-width="2" stroke-linecap="round" stroke-linejoin="round"/>
<path d="M19 8.00011L22 11.0001M23.385 9.58511C23.7788 9.19126 24.0001 8.65709 24.0001 8.10011C24.0001 7.54312 23.7788 7.00895 23.385 6.61511C22.9912 6.22126 22.457 6 21.9 6C21.343 6 20.8088 6.22126 20.415 6.61511L12 15.0001V18.0001H15L23.385 9.58511Z" stroke="#809CAA" stroke-width="2" stroke-linecap="round" stroke-linejoin="round"/>
</svg>
