<svg width="28" height="28" viewBox="0 0 28 28" fill="none" xmlns="http://www.w3.org/2000/svg">
<circle cx="14" cy="14" r="14" fill="white"/>
<g clip-path="url(#clip0_865_4)">
<path d="M8.8913 18.821C8.93148 18.821 8.97166 18.817 9.01184 18.811L12.3909 18.2183C12.431 18.2103 12.4692 18.1922 12.4973 18.1621L21.0132 9.64623C21.0318 9.62765 21.0466 9.60557 21.0567 9.58127C21.0667 9.55697 21.0719 9.53091 21.0719 9.5046C21.0719 9.47829 21.0667 9.45224 21.0567 9.42794C21.0466 9.40364 21.0318 9.38156 21.0132 9.36297L17.6743 6.02213C17.6362 5.98396 17.5859 5.96387 17.5317 5.96387C17.4775 5.96387 17.4272 5.98396 17.3891 6.02213L8.87322 14.538C8.84309 14.5681 8.82501 14.6043 8.81697 14.6444L8.22434 18.0235C8.2048 18.1311 8.21178 18.2418 8.24468 18.3462C8.27759 18.4505 8.33542 18.5452 8.41318 18.6221C8.54577 18.7507 8.71251 18.821 8.8913 18.821ZM10.2453 15.3174L17.5317 8.03306L19.0043 9.50561L11.7179 16.79L9.93193 17.1054L10.2453 15.3174ZM21.3929 20.5085H6.60715C6.25157 20.5085 5.96429 20.7958 5.96429 21.1514V21.8746C5.96429 21.963 6.03662 22.0353 6.12501 22.0353H21.875C21.9634 22.0353 22.0357 21.963 22.0357 21.8746V21.1514C22.0357 20.7958 21.7484 20.5085 21.3929 20.5085Z" fill="#809CAB"/>
</g>
<defs>
<clipPath id="clip0_865_4">
<rect width="18" height="18" fill="white" transform="translate(5 5)"/>
</clipPath>
</defs>
</svg>
