<svg width="30" height="30" viewBox="0 0 30 30" fill="none" xmlns="http://www.w3.org/2000/svg">
<rect width="30" height="30" rx="5" fill="white"/>
<path d="M7 23C6.45 23 5.97933 22.8043 5.588 22.413C5.19667 22.0217 5.00067 21.5507 5 21V9C5 8.45 5.196 7.97933 5.588 7.588C5.98 7.19667 6.45067 7.00067 7 7H23C23.55 7 24.021 7.196 24.413 7.588C24.805 7.98 25.0007 8.45067 25 9V21C25 21.55 24.8043 22.021 24.413 22.413C24.0217 22.805 23.5507 23.0007 23 23H7ZM15 16L7 11V21H23V11L15 16ZM15 14L23 9H7L15 14ZM7 11V9V21V11Z" fill="#809CAA"/>
</svg>
