<svg xmlns="http://www.w3.org/2000/svg" width="28" height="28" viewBox="0 0 28 28" fill="none">
  <path d="M19.096 4.26886L24.892 10.0649C25.1358 10.3086 25.3291 10.598 25.4611 10.9165C25.593 11.235 25.6609 11.5763 25.6609 11.921C25.6609 12.2657 25.593 12.6071 25.4611 12.9256C25.3291 13.2441 25.1358 13.5334 24.892 13.7772L14.763 23.9039L21.8774 23.905C22.0888 23.905 22.2931 23.9816 22.4524 24.1206C22.6118 24.2596 22.7154 24.4515 22.7442 24.661L22.7524 24.78C22.7523 24.9915 22.6758 25.1958 22.5368 25.3551C22.3978 25.5145 22.2058 25.6181 21.9964 25.6469L21.8774 25.655L12.0657 25.6562C11.6974 25.6769 11.3288 25.6195 10.9842 25.4878C10.6396 25.3561 10.3267 25.1531 10.066 24.892L4.26886 19.0949C4.0251 18.8511 3.83174 18.5617 3.69982 18.2432C3.5679 17.9248 3.5 17.5834 3.5 17.2387C3.5 16.894 3.5679 16.5526 3.69982 16.2341C3.83174 15.9157 4.0251 15.6263 4.26886 15.3825L15.3837 4.26886C15.6274 4.0251 15.9168 3.83174 16.2353 3.69982C16.5538 3.5679 16.8951 3.5 17.2399 3.5C17.5846 3.5 17.9259 3.5679 18.2444 3.69982C18.5629 3.83174 18.8523 4.0251 19.096 4.26886ZM14.2287 21.8739L7.28119 14.9252L5.52302 16.6367C5.35916 16.8008 5.26713 17.0231 5.26713 17.255C5.26713 17.4869 5.35916 17.7093 5.52302 17.8734L11.2934 23.6437C11.4599 23.8051 11.6837 23.8938 11.9156 23.8903C12.1474 23.8868 12.3684 23.7914 12.53 23.625L14.2287 21.8739Z" fill="#809CAA"/>
</svg>