<svg width="30" height="30" viewBox="0 0 30 30" fill="none" xmlns="http://www.w3.org/2000/svg">
<rect width="30" height="30" rx="5" fill="white"/>
<path d="M19.4394 20.4691C19.2249 20.4691 19.0191 20.3852 18.8674 20.2359C18.7157 20.0866 18.6305 19.8841 18.6305 19.6729C18.6305 19.4617 18.7157 19.2592 18.8674 19.1098C19.0191 18.9605 19.2249 18.8766 19.4394 18.8766H22.9238C23.3024 18.8765 23.6753 18.7865 24.0109 18.6141C24.3466 18.4418 24.635 18.1923 24.8517 17.8867C25.0684 17.5812 25.207 17.2287 25.2556 16.8592C25.3043 16.4896 25.2617 16.114 25.1313 15.7641C25.001 15.4143 24.7868 15.1006 24.5069 14.8497C24.2271 14.5988 23.8898 14.418 23.5238 14.3229C23.1578 14.2277 22.7739 14.2209 22.4047 14.3031C22.0354 14.3852 21.6918 14.5539 21.403 14.7948L21.4065 14.7921C21.242 14.9218 21.0325 14.9832 20.8227 14.9632C20.6129 14.9433 20.4193 14.8436 20.2829 14.6854C20.1466 14.5271 20.0783 14.3228 20.0926 14.1158C20.1069 13.9088 20.2026 13.7154 20.3594 13.5767L20.3603 13.5759C20.8926 13.1313 21.5352 12.8336 22.2225 12.7131L22.2465 12.7096C22.2379 11.3963 21.8027 10.1202 21.0046 9.06775C20.2065 8.01532 19.0873 7.24178 17.8107 6.86023C16.534 6.47868 15.1669 6.50912 13.9091 6.9471C12.6513 7.38508 11.5688 8.20762 10.8199 9.2945L10.8056 9.31638C11.4173 9.53044 11.9882 9.84396 12.4945 10.2439L12.483 10.2351C12.6149 10.3376 12.7111 10.478 12.7583 10.6368C12.8055 10.7955 12.8014 10.9648 12.7465 11.1212C12.6916 11.2775 12.5887 11.4132 12.4519 11.5093C12.3152 11.6055 12.1515 11.6574 11.9834 11.6579C11.7966 11.6583 11.6156 11.5945 11.4714 11.4776L11.4732 11.4785C10.7323 10.8877 9.80713 10.5663 8.85363 10.5685H8.84119C7.72233 10.5685 6.65018 11.006 5.85903 11.7848C5.06787 12.5636 4.62341 13.6199 4.62341 14.7212C4.62341 15.8226 5.06787 16.8789 5.85903 17.6577C6.65018 18.4365 7.72321 18.874 8.84207 18.874H10.7025C10.917 18.874 11.1228 18.9579 11.2745 19.1072C11.4262 19.2565 11.5114 19.4591 11.5114 19.6703C11.5114 19.8814 11.4262 20.084 11.2745 20.2333C11.1228 20.3826 10.917 20.4665 10.7025 20.4665H8.83941C7.29125 20.4665 5.8065 19.8611 4.71179 18.7835C3.61708 17.7059 3.00208 16.2443 3.00208 14.7204C3.00208 13.1964 3.61708 11.7349 4.71179 10.6573C5.8065 9.57964 7.29125 8.97425 8.83941 8.97425C8.93007 8.97425 9.01896 8.98125 9.11052 8.98562C10.4821 6.59075 13.0492 5 15.9932 5C18.0814 5.00023 20.0841 5.81687 21.5608 7.27035C23.0375 8.72382 23.8674 10.6951 23.8678 12.7507V12.7665C25.6172 13.1988 26.8927 14.7326 26.8927 16.5605C26.8925 17.5964 26.4744 18.5897 25.7303 19.3222C24.9862 20.0547 23.977 20.4663 22.9247 20.4665L19.4394 20.4691ZM14.1363 19.6729V16.0092L13.2216 16.9105C13.0698 17.0598 12.8639 17.1437 12.6493 17.1436C12.4347 17.1435 12.2289 17.0595 12.0772 16.9101C11.9255 16.7606 11.8403 16.558 11.8404 16.3467C11.8405 16.1354 11.9258 15.9328 12.0776 15.7835L14.3736 13.5225C14.4242 13.474 14.481 13.4323 14.5425 13.3982L14.547 13.3965C14.5621 13.3877 14.5772 13.3807 14.5923 13.3737C14.6501 13.3432 14.7116 13.32 14.7754 13.3046L14.7807 13.3038H14.7896C14.8585 13.2914 14.9288 13.2881 14.9985 13.2941H14.9959H15.0047C15.0199 13.2941 15.035 13.2959 15.0492 13.2994H15.0483C15.1247 13.3081 15.1941 13.3256 15.2599 13.3527L15.2545 13.351C15.2984 13.3696 15.3407 13.3918 15.3807 13.4175L15.3781 13.4158C15.3905 13.4228 15.4003 13.4315 15.4119 13.4385C15.4424 13.46 15.4715 13.4834 15.499 13.5085L15.5185 13.5243L17.8163 15.7852C17.8915 15.8592 17.9511 15.947 17.9918 16.0436C18.0325 16.1403 18.0535 16.2438 18.0535 16.3484C18.0536 16.4531 18.0327 16.5566 17.9921 16.6533C17.9514 16.75 17.8919 16.8378 17.8167 16.9118C17.7416 16.9858 17.6524 17.0445 17.5543 17.0846C17.4561 17.1247 17.3509 17.1453 17.2446 17.1453C17.1383 17.1454 17.0331 17.1248 16.9349 17.0848C16.8367 17.0448 16.7475 16.9862 16.6723 16.9123L15.7567 16.011V19.6772C15.7567 19.8884 15.6715 20.091 15.5198 20.2403C15.3681 20.3896 15.1624 20.4735 14.9479 20.4735C14.7333 20.4735 14.5276 20.3896 14.3759 20.2403C14.2242 20.091 14.139 19.8884 14.139 19.6772L14.1363 19.6729Z" fill="#809CAA"/>
</svg>
