<svg width="28" height="28" viewBox="0 0 28 28" fill="none" xmlns="http://www.w3.org/2000/svg">
<circle cx="14" cy="14" r="14" fill="white"/>
<path d="M21.5596 18.1556H20.4788C20.3944 18.1556 20.3241 18.222 20.3241 18.3017V19.4742H7.67389V7.52492H20.3261V8.69746C20.3261 8.77715 20.3964 8.84355 20.4808 8.84355H21.5616C21.646 8.84355 21.7163 8.77905 21.7163 8.69746V6.79634C21.7163 6.4738 21.4411 6.21387 21.0996 6.21387H6.90246C6.56094 6.21387 6.28572 6.4738 6.28572 6.79634V20.2028C6.28572 20.5254 6.56094 20.7853 6.90246 20.7853H21.0976C21.4391 20.7853 21.7143 20.5254 21.7143 20.2028V18.3017C21.7143 18.2201 21.644 18.1556 21.5596 18.1556ZM21.9333 13.3801L19.0826 11.2551C18.9761 11.1754 18.8214 11.2475 18.8214 11.3746V12.8165H12.5134C12.425 12.8165 12.3527 12.8848 12.3527 12.9683V14.0308C12.3527 14.1143 12.425 14.1826 12.5134 14.1826H18.8214V15.6246C18.8214 15.7517 18.9781 15.8238 19.0826 15.7441L21.9333 13.6191C21.9525 13.6049 21.968 13.5868 21.9787 13.5661C21.9894 13.5454 21.9949 13.5226 21.9949 13.4996C21.9949 13.4765 21.9894 13.4538 21.9787 13.4331C21.968 13.4124 21.9525 13.3942 21.9333 13.3801Z" fill="#809CAA"/>
</svg>
