<svg width="28" height="28" viewBox="0 0 28 28" fill="none" xmlns="http://www.w3.org/2000/svg">
<g id="Group 45">
<circle id="Ellipse 4" cx="14" cy="14" r="14" fill="#809CAA"/>
<g id="&#240;&#159;&#166;&#134; icon &#34;eye&#34;">
<path id="Vector" d="M13.8093 5.72727C7.18457 5.72727 3.25684 13.488 3.25684 13.488C3.25684 13.488 7.18457 21.2488 13.8093 21.2488C20.277 21.2488 24.2047 13.488 24.2047 13.488C24.2047 13.488 20.277 5.72727 13.8093 5.72727ZM13.7308 8.3142C16.6373 8.3142 18.9678 10.6424 18.9678 13.488C18.9678 16.3595 16.6373 18.6619 13.7308 18.6619C10.8505 18.6619 8.49381 16.3595 8.49381 13.488C8.49381 10.6424 10.8505 8.3142 13.7308 8.3142ZM13.7308 10.9011C12.2906 10.9011 11.1123 12.0652 11.1123 13.488C11.1123 14.9109 12.2906 16.075 13.7308 16.075C15.171 16.075 16.3493 14.9109 16.3493 13.488C16.3493 13.2294 16.2445 12.9965 16.1922 12.7637C15.9827 13.1776 15.5637 13.488 15.04 13.488C14.3069 13.488 13.7308 12.9189 13.7308 12.1946C13.7308 11.6772 14.045 11.2633 14.464 11.0563C14.2283 10.9787 13.9926 10.9011 13.7308 10.9011Z" fill="white"/>
</g>
</g>
</svg>
