<svg width="20" height="20" viewBox="0 0 20 20" fill="none" xmlns="http://www.w3.org/2000/svg">
<path d="M10 19C14.9705 19 19 14.9705 19 10C19 5.02943 14.9705 1 10 1C5.02943 1 1 5.02943 1 10C1 14.9705 5.02943 19 10 19Z" stroke="#809CAA" stroke-width="1.07322" stroke-linecap="round" stroke-linejoin="round"/>
<path d="M12.7 6.8499C12.0835 6.23341 10.9979 5.8046 10 5.77775M10 5.77775C8.81286 5.7458 7.75005 6.28288 7.75005 7.74991C7.75005 10.4499 12.7 9.0999 12.7 11.7999C12.7 13.3398 11.3826 14.0015 10 13.9518M10 5.77775V4.1499M7.30005 12.6999C7.88008 13.4733 8.95857 13.9144 10 13.9518M10 13.9518V15.8499" stroke="#809CAA" stroke-width="1.07322" stroke-linecap="round" stroke-linejoin="round"/>
</svg>
