<svg xmlns="http://www.w3.org/2000/svg" width="28" height="28" viewBox="0 0 28 28" fill="none">
  <path d="M17.436 1.4585C15.8411 1.4585 14.5543 1.4585 13.5428 1.595C12.4928 1.735 11.6085 2.03833 10.9061 2.7395C10.2948 3.352 9.98445 4.1045 9.82229 4.98883C9.66479 5.84866 9.63445 6.89983 9.62745 8.16216C9.62622 8.39423 9.71722 8.61728 9.88044 8.78225C10.0437 8.94722 10.2657 9.04059 10.4978 9.04183C10.7299 9.04307 10.9529 8.95207 11.1179 8.78885C11.2828 8.62563 11.3762 8.40356 11.3775 8.1715C11.3845 6.89633 11.4171 5.99216 11.5431 5.305C11.6656 4.64466 11.8605 4.26083 12.144 3.97733C12.4671 3.65416 12.921 3.44416 13.7773 3.32866C14.6581 3.21083 15.826 3.2085 17.5001 3.2085H18.6668C20.3421 3.2085 21.51 3.21083 22.3908 3.32866C23.2471 3.44416 23.6998 3.65533 24.0241 3.97733C24.3461 4.3005 24.5561 4.75316 24.6716 5.61066C24.7906 6.49033 24.7918 7.65933 24.7918 9.3335V18.6668C24.7918 20.341 24.7906 21.5088 24.6716 22.3908C24.5561 23.2472 24.3461 23.6998 24.023 24.023C23.6998 24.3462 23.2471 24.5562 22.3908 24.6717C21.51 24.7895 20.3421 24.7918 18.6668 24.7918H17.5001C15.826 24.7918 14.6581 24.7895 13.7761 24.6717C12.921 24.5562 12.4671 24.345 12.144 24.023C11.8605 23.7383 11.6656 23.3557 11.5431 22.6953C11.4171 22.0082 11.3845 21.104 11.3775 19.8288C11.3768 19.7139 11.3536 19.6003 11.3091 19.4943C11.2645 19.3884 11.1996 19.2923 11.1179 19.2115C11.0362 19.1307 10.9394 19.0667 10.833 19.0233C10.7266 18.9799 10.6127 18.9579 10.4978 18.9585C10.3829 18.9591 10.2692 18.9823 10.1633 19.0269C10.0574 19.0714 9.96125 19.1364 9.88044 19.2181C9.79962 19.2998 9.73568 19.3966 9.69227 19.503C9.64887 19.6094 9.62684 19.7233 9.62745 19.8382C9.63445 21.1005 9.66479 22.1517 9.82229 23.0115C9.98562 23.8958 10.2948 24.6483 10.9073 25.2608C11.6085 25.9632 12.494 26.2642 13.544 26.4065C14.5543 26.5418 15.8411 26.5418 17.436 26.5418H18.731C20.327 26.5418 21.6126 26.5418 22.6241 26.4065C23.6741 26.2642 24.5585 25.9632 25.2608 25.2608C25.9631 24.5585 26.2641 23.6742 26.4065 22.6242C26.5418 21.6127 26.5418 20.3258 26.5418 18.731V9.26933C26.5418 7.6745 26.5418 6.38766 26.4065 5.37616C26.2653 4.32616 25.9631 3.44183 25.2608 2.7395C24.5585 2.03716 23.6741 1.73616 22.6241 1.595C21.6126 1.4585 20.3258 1.4585 18.731 1.4585H17.436Z" fill="#809CAA"/>
  <path d="M17.5001 13.1249C17.7321 13.1249 17.9547 13.2171 18.1188 13.3812C18.2829 13.5453 18.3751 13.7679 18.3751 13.9999C18.3751 14.232 18.2829 14.4546 18.1188 14.6187C17.9547 14.7827 17.7321 14.8749 17.5001 14.8749H4.69825L6.98608 16.8349C7.16245 16.9859 7.27161 17.2008 7.28955 17.4323C7.30749 17.6638 7.23274 17.8929 7.08175 18.0693C6.93075 18.2456 6.71588 18.3548 6.48439 18.3727C6.25291 18.3907 6.02378 18.3159 5.84741 18.1649L1.76408 14.6649C1.66802 14.5828 1.5909 14.4808 1.53802 14.366C1.48515 14.2512 1.45776 14.1263 1.45776 13.9999C1.45776 13.8735 1.48515 13.7487 1.53802 13.6339C1.5909 13.5191 1.66802 13.4171 1.76408 13.3349L5.84741 9.83494C5.93474 9.76017 6.03594 9.70334 6.14524 9.66768C6.25453 9.63203 6.36978 9.61825 6.48439 9.62713C6.59901 9.63601 6.71076 9.66739 6.81325 9.71946C6.91575 9.77153 7.00698 9.84327 7.08175 9.9306C7.15651 10.0179 7.21335 10.1191 7.249 10.2284C7.28466 10.3377 7.29844 10.453 7.28955 10.5676C7.28067 10.6822 7.2493 10.7939 7.19723 10.8964C7.14516 10.9989 7.07341 11.0902 6.98608 11.1649L4.69941 13.1249H17.5001Z" fill="#809CAA"/>
</svg>