<svg xmlns="http://www.w3.org/2000/svg" width="30" height="21" viewBox="0 0 30 21" fill="none">
  <g clip-path="url(#clip0_667_227)">
    <path d="M12 14.0318H18V12.5284H16V5.5125H14.2188L11.9062 7.65799L13.1094 8.91083C13.5469 8.52454 13.8333 8.22699 13.9688 8.01818H14V12.5284H12V14.0318ZM20 10.0227C20 10.7536 19.8906 11.4948 19.6719 12.2465C19.4531 12.9982 19.1432 13.6977 18.7422 14.345C18.3411 14.9923 17.8125 15.5196 17.1562 15.9267C16.5 16.3339 15.7812 16.5375 15 16.5375C14.2188 16.5375 13.5 16.3339 12.8438 15.9267C12.1875 15.5196 11.6589 14.9923 11.2578 14.345C10.8568 13.6977 10.5469 12.9982 10.3281 12.2465C10.1094 11.4948 10 10.7536 10 10.0227C10 9.2919 10.1094 8.55064 10.3281 7.79893C10.5469 7.04723 10.8568 6.34773 11.2578 5.70043C11.6589 5.05312 12.1875 4.52589 12.8438 4.11871C13.5 3.71154 14.2188 3.50795 15 3.50795C15.7812 3.50795 16.5 3.71154 17.1562 4.11871C17.8125 4.52589 18.3411 5.05312 18.7422 5.70043C19.1432 6.34773 19.4531 7.04723 19.6719 7.79893C19.8906 8.55064 20 9.2919 20 10.0227ZM28 14.0318V6.01364C26.8958 6.01364 25.9531 5.62212 25.1719 4.8391C24.3906 4.05607 24 3.11122 24 2.00455H6C6 3.11122 5.60938 4.05607 4.82812 4.8391C4.04688 5.62212 3.10417 6.01364 2 6.01364V14.0318C3.10417 14.0318 4.04688 14.4233 4.82812 15.2064C5.60938 15.9894 6 16.9342 6 18.0409H24C24 16.9342 24.3906 15.9894 25.1719 15.2064C25.9531 14.4233 26.8958 14.0318 28 14.0318ZM30 1.00227V19.0432C30 19.3146 29.901 19.5495 29.7031 19.7479C29.5052 19.9463 29.2708 20.0455 29 20.0455H1C0.729167 20.0455 0.494792 19.9463 0.296875 19.7479C0.0989583 19.5495 0 19.3146 0 19.0432V1.00227C0 0.730824 0.0989583 0.495916 0.296875 0.29755C0.494792 0.0991832 0.729167 0 1 0H29C29.2708 0 29.5052 0.0991832 29.7031 0.29755C29.901 0.495916 30 0.730824 30 1.00227Z" fill="#3D7C20"/>
  </g>
  <defs>
    <clipPath id="clip0_667_227">
      <rect width="30" height="20.0455" fill="white"/>
    </clipPath>
  </defs>
</svg>