<svg xmlns="http://www.w3.org/2000/svg" width="48" height="48" viewBox="0 0 48 48" fill="none">
  <path d="M34 6H14C11.7909 6 10 7.79086 10 10V38C10 40.2091 11.7909 42 14 42H34C36.2091 42 38 40.2091 38 38V10C38 7.79086 36.2091 6 34 6Z" fill="#809CAA"/>
  <path d="M19 15H29M19 21H25M19 27H27M19 33H25" stroke="white" stroke-linecap="round"/>
  <path d="M16 15C16 14.4477 15.5523 14 15 14C14.4477 14 14 14.4477 14 15C14 15.5523 14.4477 16 15 16C15.5523 16 16 15.5523 16 15Z" fill="white"/>
  <path d="M16 21C16 20.4477 15.5523 20 15 20C14.4477 20 14 20.4477 14 21C14 21.5523 14.4477 22 15 22C15.5523 22 16 21.5523 16 21Z" fill="white"/>
  <path d="M16 27C16 26.4477 15.5523 26 15 26C14.4477 26 14 26.4477 14 27C14 27.5523 14.4477 28 15 28C15.5523 28 16 27.5523 16 27Z" fill="white"/>
  <path d="M16 33C16 32.4477 15.5523 32 15 32C14.4477 32 14 32.4477 14 33C14 33.5523 14.4477 34 15 34C15.5523 34 16 33.5523 16 33Z" fill="white"/>
</svg>