<svg xmlns="http://www.w3.org/2000/svg" width="28" height="28" viewBox="0 0 28 28" fill="none">
  <path d="M15.1667 3.5C12.382 3.5 9.71126 4.60625 7.74213 6.57538C5.77299 8.54451 4.66675 11.2152 4.66675 14H1.16675L5.70508 18.5383L5.78675 18.7017L10.5001 14H7.00008C7.00008 9.485 10.6517 5.83333 15.1667 5.83333C19.6817 5.83333 23.3334 9.485 23.3334 14C23.3334 18.515 19.6817 22.1667 15.1667 22.1667C12.9151 22.1667 10.8734 21.245 9.40341 19.7633L7.74675 21.42C8.71906 22.3977 9.87532 23.1732 11.1488 23.7018C12.4223 24.2304 13.7879 24.5017 15.1667 24.5C17.9515 24.5 20.6222 23.3938 22.5914 21.4246C24.5605 19.4555 25.6667 16.7848 25.6667 14C25.6667 11.2152 24.5605 8.54451 22.5914 6.57538C20.6222 4.60625 17.9515 3.5 15.1667 3.5ZM14.0001 9.33333V15.1667L18.9934 18.13L19.8334 16.7183L15.7501 14.2917V9.33333H14.0001Z" fill="#809CAA"/>
</svg>