<svg xmlns="http://www.w3.org/2000/svg" width="14" height="14" viewBox="0 0 14 14" fill="none">
  <path d="M5.32697 1.36644e-05C8.26899 1.36644e-05 10.654 2.38499 10.654 5.32698C10.654 8.26897 8.26899 10.654 5.32699 10.654C2.38496 10.654 0 8.26899 0 5.32701C0.0035 2.3864 2.38638 0.0035 5.32665 0H5.32699L5.32697 1.36644e-05ZM5.32697 9.42088C7.58798 9.42088 9.42087 7.58799 9.42087 5.32698C9.42087 3.06597 7.58798 1.23312 5.32697 1.23312C3.06598 1.23312 1.23309 3.06601 1.23309 5.32702C1.2359 7.58687 3.06712 9.41809 5.32672 9.4209H5.32699L5.32697 9.42088ZM13.1264 14L8.12798 8.99979L8.99978 8.12799L14 13.1264L13.1264 14Z" fill="#6A6969"/>
</svg>