<svg xmlns="http://www.w3.org/2000/svg" width="28" height="28" viewBox="0 0 28 28" fill="none">
  <g clip-path="url(#clip0_924_118)">
    <path d="M8.17324 0C9.71324 0 11.206 0.43225 12.4922 1.2285C14.4134 1.02365 16.356 1.25008 18.1786 1.8913C20.0011 2.53251 21.6576 3.57235 23.0272 4.935C24.2283 6.13219 25.1814 7.55449 25.8322 9.12049C26.4829 10.6865 26.8184 12.3654 26.8195 14.0612C26.8195 14.6644 26.7775 15.2629 26.6935 15.8567C27.38 17.0753 27.7416 18.4499 27.7435 19.8485C27.744 20.92 27.5324 21.981 27.1209 22.9704C26.7094 23.9597 26.1062 24.8579 25.346 25.613C24.5862 26.3711 23.6845 26.972 22.6924 27.3816C21.7003 27.7912 20.6373 28.0013 19.564 28C18.094 28 16.6625 27.6045 15.4165 26.873C13.4704 27.1057 11.4969 26.8949 9.64391 26.2563C7.79091 25.6178 6.10651 24.568 4.71699 23.1857C3.51615 21.9888 2.56311 20.5668 1.91239 19.0011C1.26168 17.4354 0.926059 15.7568 0.924738 14.0612C0.924738 13.4254 0.971405 12.7948 1.06474 12.1695C0.18185 10.619 -0.166269 8.82111 0.0740969 7.05315C0.314463 5.2852 1.12995 3.64548 2.39474 2.387C3.92904 0.858939 6.00781 0.000696803 8.17324 0ZM8.95549 12.2675C9.27049 12.8083 9.70799 13.2685 10.2312 13.6132C10.924 14.0676 11.661 14.4504 12.431 14.756C13.2908 15.1153 13.9587 15.4204 14.4347 15.6712C14.8355 15.8672 15.1995 16.1332 15.511 16.4552C15.7472 16.7038 15.8785 17.0345 15.8785 17.3792C15.8886 17.6216 15.8407 17.8629 15.7387 18.0829C15.6368 18.303 15.4837 18.4956 15.2922 18.6445C14.783 18.9875 14.1722 19.1502 13.5597 19.1065C12.93 19.1145 12.3055 18.9918 11.7257 18.746C11.4115 18.6068 11.1011 18.4591 10.7947 18.3032C10.4778 18.1361 10.1258 18.0461 9.76749 18.0408C9.44667 18.028 9.13307 18.1381 8.89074 18.3487C8.77504 18.4587 8.68461 18.5925 8.62569 18.7409C8.56678 18.8892 8.54077 19.0486 8.54949 19.208C8.54264 19.5097 8.63349 19.8056 8.80849 20.0515C9.02011 20.3199 9.29404 20.5325 9.60649 20.671C10.8261 21.2007 12.1486 21.4512 13.4775 21.4042C14.445 21.4217 15.4077 21.2646 16.3195 20.9405C17.0751 20.6719 17.7332 20.1838 18.2095 19.5387C18.6767 18.8563 18.913 18.0425 18.885 17.2165C18.9023 16.5416 18.7334 15.875 18.3967 15.2898C18.0555 14.7327 17.5939 14.2591 17.0457 13.9038C16.3535 13.4545 15.6177 13.0763 14.8495 12.775C14.7677 12.7346 14.6828 12.7007 14.5957 12.6735C13.9969 12.431 13.4057 12.1701 12.823 11.8913C12.4687 11.7261 12.1482 11.4964 11.878 11.214C11.6507 10.9741 11.5253 10.6554 11.528 10.325C11.5158 10.073 11.572 9.82233 11.6906 9.5996C11.8092 9.37688 11.9858 9.19035 12.2017 9.05975C12.7128 8.75507 13.3012 8.60494 13.8957 8.6275C14.3507 8.62225 14.8057 8.68 15.2467 8.7955C15.7274 8.93433 16.1952 9.10525 16.6502 9.30825C16.834 9.394 17.0352 9.4395 17.2382 9.44125C17.3864 9.4449 17.5336 9.41715 17.6702 9.35985C17.8068 9.30254 17.9298 9.21697 18.031 9.10875C18.2452 8.87158 18.3582 8.5601 18.346 8.24075C18.3507 7.93626 18.2451 7.64034 18.0485 7.40775C17.7781 7.12676 17.4445 6.91437 17.0755 6.78825C16.6741 6.64085 16.2591 6.53358 15.8365 6.468C15.2453 6.37157 14.647 6.3259 14.048 6.3315C13.1326 6.32462 12.2229 6.47741 11.36 6.783C10.5656 7.05004 9.85653 7.52356 9.30549 8.155C8.77339 8.78247 8.49281 9.58493 8.51799 10.4073C8.50049 11.0548 8.65099 11.6953 8.95549 12.2675Z" fill="#699BF7"/>
  </g>
  <defs>
    <clipPath id="clip0_924_118">
      <rect width="28" height="28" fill="white"/>
    </clipPath>
  </defs>
</svg>