<svg xmlns="http://www.w3.org/2000/svg" width="28" height="28" viewBox="0 0 28 28" fill="none">
  <path d="M21.8399 17.22C22.2482 16.2283 22.4699 15.1666 22.4699 14C22.4699 13.16 22.3416 12.355 22.1199 11.6083C21.3616 11.7833 20.5683 11.8766 19.7399 11.8766C18.0436 11.8785 16.3716 11.4724 14.865 10.6927C13.3585 9.91306 12.0614 8.78259 11.0833 7.39665C10.0369 9.92852 8.0629 11.9651 5.56492 13.09C5.51825 13.3816 5.51825 13.6966 5.51825 14C5.51825 15.1138 5.73764 16.2167 6.16388 17.2458C6.59012 18.2748 7.21488 19.2098 8.00247 19.9974C9.5931 21.588 11.7504 22.4816 13.9999 22.4816C15.2249 22.4816 16.4033 22.2133 17.4649 21.735C18.1299 23.0066 18.4333 23.6366 18.4099 23.6366C16.4966 24.2783 15.0149 24.5933 13.9999 24.5933C11.1766 24.5933 8.48159 23.485 6.49825 21.49C5.29192 20.2874 4.39518 18.8102 3.88492 17.185H2.33325V11.8766H3.60492C3.9902 10.0012 4.87599 8.26512 6.16831 6.8525C7.46062 5.43988 9.11124 4.40345 10.945 3.8532C12.7788 3.30294 14.7274 3.25938 16.5839 3.72714C18.4405 4.19489 20.1358 5.15652 21.4899 6.50998C22.9602 7.97444 23.963 9.8421 24.3716 11.8766H25.6666V17.185H25.5966L21.4433 21L15.2599 20.3V18.3516H20.8949L21.8399 17.22ZM10.8149 13.7316C11.1649 13.7316 11.5033 13.8716 11.7483 14.1283C11.9945 14.3765 12.1326 14.712 12.1326 15.0616C12.1326 15.4113 11.9945 15.7467 11.7483 15.995C11.5033 16.24 11.1649 16.38 10.8149 16.38C10.0799 16.38 9.48492 15.7966 9.48492 15.0616C9.48492 14.3266 10.0799 13.7316 10.8149 13.7316ZM17.1733 13.7316C17.9083 13.7316 18.4916 14.3266 18.4916 15.0616C18.4916 15.7966 17.9083 16.38 17.1733 16.38C16.4383 16.38 15.8433 15.7966 15.8433 15.0616C15.8433 14.7089 15.9834 14.3706 16.2328 14.1212C16.4822 13.8718 16.8205 13.7316 17.1733 13.7316Z" fill="#809CAA"/>
</svg>