<svg xmlns="http://www.w3.org/2000/svg" width="28" height="28" viewBox="0 0 28 28" fill="none">
  <g clip-path="url(#clip0_885_79)">
    <path d="M0 3.5C0 2.57174 0.368749 1.6815 1.02513 1.02513C1.6815 0.368749 2.57174 0 3.5 0L24.5 0C25.4283 0 26.3185 0.368749 26.9749 1.02513C27.6313 1.6815 28 2.57174 28 3.5V24.5C28 25.4283 27.6313 26.3185 26.9749 26.9749C26.3185 27.6313 25.4283 28 24.5 28H3.5C2.57174 28 1.6815 27.6313 1.02513 26.9749C0.368749 26.3185 0 25.4283 0 24.5V3.5ZM26.25 7H19.25V12.25H26.25V7ZM26.25 14H19.25V19.25H26.25V14ZM26.25 21H19.25V26.25H24.5C24.9641 26.25 25.4092 26.0656 25.7374 25.7374C26.0656 25.4092 26.25 24.9641 26.25 24.5V21ZM17.5 26.25V21H10.5V26.25H17.5ZM8.75 26.25V21H1.75V24.5C1.75 24.9641 1.93437 25.4092 2.26256 25.7374C2.59075 26.0656 3.03587 26.25 3.5 26.25H8.75ZM1.75 19.25H8.75V14H1.75V19.25ZM1.75 12.25H8.75V7H1.75V12.25ZM10.5 7V12.25H17.5V7H10.5ZM17.5 14H10.5V19.25H17.5V14Z" fill="#809CAA"/>
  </g>
  <defs>
    <clipPath id="clip0_885_79">
      <rect width="28" height="28" fill="white"/>
    </clipPath>
  </defs>
</svg>