<svg width="24" height="17" viewBox="0 0 24 17" fill="none" xmlns="http://www.w3.org/2000/svg">
<path d="M0 3.71875H10.5169L11.3258 5.3125H0.808989L0 3.71875ZM1.07865 6.90625H11.5955L12.4045 8.5H1.88764L1.07865 6.90625ZM18.6067 15.4062C19.502 15.4062 20.2247 14.6944 20.2247 13.8125C20.2247 12.9306 19.502 12.2188 18.6067 12.2188C17.7115 12.2188 16.9888 12.9306 16.9888 13.8125C16.9888 14.6944 17.7115 15.4062 18.6067 15.4062ZM20.2247 5.84375H17.5281V8.5H22.3389L20.2247 5.84375ZM7.82022 15.4062C8.71551 15.4062 9.4382 14.6944 9.4382 13.8125C9.4382 12.9306 8.71551 12.2188 7.82022 12.2188C6.92494 12.2188 6.20225 12.9306 6.20225 13.8125C6.20225 14.6944 6.92494 15.4062 7.82022 15.4062ZM20.764 4.25L24 8.5V13.8125H21.8427C21.8427 15.5763 20.3973 17 18.6067 17C16.8162 17 15.3708 15.5763 15.3708 13.8125H11.0562C11.0562 15.5763 9.6 17 7.82022 17C6.02966 17 4.58427 15.5763 4.58427 13.8125H2.42697V10.0938H4.58427V11.6875H5.40405C5.9973 11.0394 6.86022 10.625 7.82022 10.625C8.78022 10.625 9.64315 11.0394 10.2364 11.6875H15.3708V2.125H2.42697C2.42697 0.945625 3.38697 0 4.58427 0H17.5281V4.25H20.764Z" fill="#809CAA"/>
</svg>
