<svg width="24" height="24" viewBox="0 0 24 24" fill="none" xmlns="http://www.w3.org/2000/svg">
<circle cx="12" cy="12" r="12" fill="white"/>
<path d="M5.33705 12.5625L15.3996 20.4218C15.4258 20.4425 15.4574 20.4554 15.4907 20.459C15.524 20.4625 15.5576 20.4566 15.5877 20.4419C15.6177 20.4272 15.6431 20.4044 15.6607 20.3759C15.6784 20.3475 15.6877 20.3147 15.6875 20.2812V18.5558C15.6875 18.4464 15.6362 18.3415 15.5513 18.2745L7.51562 12L15.5513 5.72541C15.6384 5.65845 15.6875 5.55354 15.6875 5.44416V3.71872C15.6875 3.56916 15.5156 3.48657 15.3996 3.57809L5.33705 11.4375C5.25152 11.5042 5.18234 11.5895 5.13475 11.687C5.08717 11.7845 5.06243 11.8915 5.06243 12C5.06243 12.1084 5.08717 12.2155 5.13475 12.3129C5.18234 12.4104 5.25152 12.4958 5.33705 12.5625Z" fill="#809CAA"/>
</svg>
